<?xml version="1.0" standalone="no"?>
<!DOCTYPE svg PUBLIC "-//W3C//DTD SVG 20010904//EN"
 "http://www.w3.org/TR/2001/REC-SVG-20010904/DTD/svg10.dtd">
<svg version="1.0" xmlns="http://www.w3.org/2000/svg"
 width="1456.000000pt" height="736.000000pt" viewBox="0 0 1456.000000 736.000000"
 preserveAspectRatio="xMidYMid meet">

<g transform="translate(0.000000,736.000000) scale(0.100000,-0.100000)"
   fill="#5e0303" stroke="none">
<path d="M795 7240 c-3 -5 -4 -10 -1 -10 3 0 1 -12 -5 -27 -6 -15 -7 -24 -3
-20 4 3 13 -1 21 -11 12 -16 13 -16 6 2 -4 13 -2 17 8 14 8 -2 15 -14 17 -26
3 -17 -2 -22 -18 -22 -24 0 -89 62 -71 68 6 2 11 10 11 18 0 11 -20 14 -99 14
l-99 0 -4 -29 c-2 -17 -1 -28 4 -25 13 8 9 -9 -7 -30 -13 -18 -14 -17 -21 8
-3 14 -4 38 -2 51 5 24 4 25 -54 25 -33 0 -57 -3 -55 -7 3 -5 1 -17 -3 -28 -7
-18 -8 -17 -15 8 -6 23 -12 28 -34 25 -14 -1 -32 -7 -39 -12 -9 -7 -16 -6 -21
2 -8 14 -71 5 -71 -9 0 -5 -8 -9 -18 -9 -19 0 -57 -38 -79 -77 -7 -12 -16 -47
-19 -78 -6 -49 -5 -55 12 -55 14 0 15 -3 6 -12 -16 -16 -15 -31 0 -26 13 5 38
-14 38 -27 0 -4 -9 -5 -20 -2 -20 5 -45 -15 -33 -26 3 -4 15 -7 25 -7 26 0 22
-17 -5 -24 -20 -5 -22 -10 -19 -41 2 -19 9 -38 14 -41 5 -3 2 -14 -8 -25 -13
-15 -14 -19 -3 -19 20 0 33 11 46 40 l12 25 0 -23 c1 -13 -6 -30 -14 -38 -17
-18 -20 -50 -5 -59 5 -3 15 -15 20 -26 9 -16 7 -19 -15 -19 -15 0 -24 4 -21 9
7 11 -22 36 -31 27 -3 -3 -1 -6 6 -6 7 0 11 -6 8 -14 -3 -7 -1 -18 5 -24 6 -6
7 -19 3 -29 -4 -10 -9 -31 -11 -47 -4 -24 -2 -27 11 -16 12 10 15 10 15 -4 0
-9 7 -16 15 -16 20 0 20 -46 -1 -54 -25 -10 -26 -8 -19 25 6 24 4 30 -6 27
-16 -6 -15 -61 1 -66 5 -2 10 -8 10 -14 0 -5 -9 -6 -20 -3 -16 5 -20 2 -20
-14 0 -25 0 -25 36 -6 16 8 34 15 40 15 14 0 13 -32 -1 -42 -17 -13 -25 -9
-18 8 4 10 -3 7 -19 -8 -33 -31 -43 -68 -18 -68 11 0 24 8 29 18 9 15 10 15
11 -5 0 -12 -6 -24 -12 -26 -10 -4 -10 -8 1 -15 8 -6 10 -15 6 -22 -5 -9 -4
-11 3 -6 7 4 12 1 12 -8 0 -20 -9 -20 -31 0 -10 9 -23 13 -30 9 -8 -6 -4 -12
12 -21 13 -7 18 -13 10 -14 -10 0 -11 -3 -2 -14 10 -12 8 -13 -8 -9 -18 5 -21
1 -21 -30 0 -45 8 -67 26 -67 21 0 17 -17 -6 -23 -19 -5 -29 -37 -12 -37 5 0
17 -7 28 -15 18 -15 18 -15 -8 -9 l-28 6 -1 -738 c-1 -407 -1 -746 -1 -754 -2
-278 5 -540 15 -544 9 -3 9 -5 0 -5 -10 -1 -13 -45 -13 -186 0 -102 4 -185 8
-185 11 0 67 42 89 66 10 12 44 28 75 38 32 9 61 22 65 29 11 18 11 2070 0
2084 -6 9 -5 23 3 42 14 34 5 71 -16 71 -8 0 -14 9 -14 23 1 21 1 22 15 3 14
-19 15 -19 15 6 0 15 -4 30 -10 33 -5 3 -10 1 -10 -4 0 -6 -4 -11 -10 -11 -5
0 -10 7 -10 15 0 8 -7 15 -15 15 -8 0 -15 5 -15 10 0 6 9 10 20 10 11 0 20 -4
20 -10 0 -5 7 -10 15 -10 16 0 16 3 19 202 1 73 -2 107 -9 105 -6 -1 -12 3
-13 8 -2 6 -13 16 -25 23 -20 11 -20 12 -2 8 45 -12 52 19 46 207 -1 11 -7 17
-17 15 -10 -2 -19 3 -22 11 -3 8 0 11 7 7 7 -5 9 -1 5 8 -3 9 -2 16 4 16 6 0
13 -6 15 -12 4 -10 6 -10 6 -1 1 6 -4 15 -9 18 -8 5 -8 11 0 19 5 8 10 57 9
112 -1 148 2 199 13 209 2 3 122 6 266 6 213 1 259 4 255 15 -3 7 -15 12 -26
11 -14 -1 -21 3 -19 12 1 7 -4 18 -12 25 -20 14 -10 57 10 49 19 -7 31 27 13
38 -11 7 -11 9 3 9 9 0 20 -9 23 -20 7 -21 25 -28 25 -9 0 5 5 7 10 4 6 -4 8
-11 5 -16 -4 -5 -1 -9 5 -9 6 0 14 8 17 17 6 15 7 15 14 -3 7 -17 8 -17 8 -1
1 17 21 25 21 8 0 -5 10 -9 23 -9 12 0 36 -4 52 -8 27 -6 29 -5 17 9 -8 9 -23
18 -35 21 -12 2 -6 4 13 3 33 -2 35 0 35 28 0 24 -5 30 -22 31 -14 1 -20 -3
-16 -12 3 -8 -4 -15 -19 -18 -57 -12 -79 -13 -85 -3 -3 6 -1 7 5 3 7 -4 12 -2
12 3 0 6 13 11 29 11 33 0 44 11 35 34 -5 13 -9 12 -24 -7 l-19 -22 6 25 5 25
-25 -27 c-30 -34 -33 -34 -41 -3 -8 31 -41 34 -43 4 -1 -12 7 -23 20 -29 16
-6 17 -9 5 -9 -9 -1 -24 -4 -33 -7 -9 -4 -15 -3 -14 2 0 5 -2 20 -6 32 -6 18
-13 23 -30 19 -16 -3 -22 0 -18 10 6 15 -13 18 -22 3z m-192 -30 c-3 -12 -8
-19 -11 -16 -5 6 5 36 12 36 2 0 2 -9 -1 -20z m-213 0 c0 -5 -2 -10 -4 -10 -3
0 -8 5 -11 10 -3 6 -1 10 4 10 6 0 11 -4 11 -10z m86 -37 c-7 -7 -26 7 -26 19
0 6 6 6 15 -2 9 -7 13 -15 11 -17z m-230 -7 c9 -9 10 -17 4 -21 -5 -3 -10 -2
-10 4 0 6 -7 8 -15 5 -15 -6 -21 7 -8 19 9 10 13 9 29 -7z m118 -2 c5 -14 4
-15 -9 -4 -17 14 -19 20 -6 20 5 0 12 -7 15 -16z m143 -21 c-3 -10 -5 -4 -5
12 0 17 2 24 5 18 2 -7 2 -21 0 -30z m203 11 c0 -8 -4 -12 -10 -9 -5 3 -10 10
-10 16 0 5 5 9 10 9 6 0 10 -7 10 -16z m-75 -4 c3 -5 1 -10 -4 -10 -6 0 -11 5
-11 10 0 6 2 10 4 10 3 0 8 -4 11 -10z m165 -20 c0 -5 -4 -10 -10 -10 -5 0
-10 5 -10 10 0 6 5 10 10 10 6 0 10 -4 10 -10z m-400 -22 c0 7 5 12 10 12 7 0
7 -6 0 -19 -6 -13 -17 -17 -30 -14 -12 3 -29 -2 -40 -12 -21 -19 -24 -17 -14
9 3 9 12 16 19 16 7 0 16 8 20 18 6 16 7 16 21 -2 8 -11 14 -14 14 -8z m141
-5 c-12 -20 -14 -14 -5 12 4 9 9 14 11 11 3 -2 0 -13 -6 -23z m198 -18 c19
-20 31 -38 28 -42 -8 -8 -57 43 -57 59 0 7 -7 3 -15 -8 -13 -16 -16 -17 -24
-4 -8 11 -6 17 7 22 25 10 24 10 61 -27z m-551 2 c2 -9 -2 -17 -8 -17 -6 0 -8
4 -5 10 3 6 -1 7 -9 4 -16 -6 -22 7 -9 20 11 10 28 1 31 -17z m97 13 c3 -5 1
-10 -4 -10 -6 0 -11 5 -11 10 0 6 2 10 4 10 3 0 8 -4 11 -10z m185 -11 c0 -5
-4 -9 -10 -9 -5 0 -10 7 -10 16 0 8 5 12 10 9 6 -3 10 -10 10 -16z m295 11 c3
-5 1 -10 -4 -10 -6 0 -11 5 -11 10 0 6 2 10 4 10 3 0 8 -4 11 -10z m38 -5 c-3
-9 -8 -14 -10 -11 -3 3 -2 9 2 15 9 16 15 13 8 -4z m-553 -16 c0 -6 -4 -7 -10
-4 -5 3 -10 11 -10 16 0 6 5 7 10 4 6 -3 10 -11 10 -16z m385 1 c3 -5 -1 -10
-10 -10 -9 0 -13 5 -10 10 3 6 8 10 10 10 2 0 7 -4 10 -10z m-347 -26 c14 -15
14 -16 -3 -13 -10 2 -20 10 -23 17 -5 17 6 15 26 -4z m398 -10 c-4 -9 -9 -15
-11 -12 -3 3 -3 13 1 22 4 9 9 15 11 12 3 -3 3 -13 -1 -22z m-481 -4 c3 -5 15
-10 26 -10 10 0 19 -5 19 -10 0 -6 10 -8 24 -4 16 4 25 1 29 -11 5 -12 11 -14
26 -5 29 15 36 12 18 -8 -9 -10 -23 -36 -31 -58 l-15 -39 0 43 c-1 30 -5 42
-16 42 -8 0 -15 -4 -15 -10 0 -5 -4 -10 -10 -10 -5 0 -10 6 -10 14 0 23 -20
30 -34 11 -12 -17 -13 -17 -21 1 -17 39 -9 85 10 54z m39 -112 c-9 -32 -14
-35 -24 -18 -14 21 -12 28 8 33 9 3 18 5 20 6 2 0 0 -9 -4 -21z m6 -47 c0 -6
-4 -13 -10 -16 -5 -3 -10 1 -10 9 0 9 5 16 10 16 6 0 10 -4 10 -9z m35 -91 c3
-5 1 -10 -4 -10 -6 0 -11 5 -11 10 0 6 2 10 4 10 3 0 8 -4 11 -10z m-41 -86
c9 -3 16 -11 16 -16 0 -7 -5 -6 -13 1 -8 6 -17 8 -20 4 -4 -3 -7 -1 -7 5 0 14
2 14 24 6z m51 -94 c-3 -5 -11 -10 -16 -10 -6 0 -7 5 -4 10 3 6 11 10 16 10 6
0 7 -4 4 -10z m-111 -16 c23 -9 20 -23 -4 -21 -11 1 -20 7 -20 14 0 15 2 15
24 7z m171 -14 c3 -5 2 -10 -4 -10 -5 0 -13 5 -16 10 -3 6 -2 10 4 10 5 0 13
-4 16 -10z m-42 -49 c-10 -7 -11 -27 -1 -36 9 -10 -2 -37 -20 -52 -22 -18 -37
-16 -22 2 10 12 10 18 0 30 -10 13 -10 19 4 33 9 10 13 21 10 25 -3 3 -3 11 1
17 5 8 11 8 21 -1 8 -7 11 -15 7 -18z m29 -13 c-7 -7 -12 -8 -12 -2 0 14 12
26 19 19 2 -3 -1 -11 -7 -17z m-122 -23 c0 -5 -5 -3 -10 5 -5 8 -10 20 -10 25
0 6 5 3 10 -5 5 -8 10 -19 10 -25z m10 -19 c0 -3 -4 -8 -10 -11 -5 -3 -10 -1
-10 4 0 6 5 11 10 11 6 0 10 -2 10 -4z m17 -278 c-3 -8 -6 -5 -6 6 -1 11 2 17
5 13 3 -3 4 -12 1 -19z m-57 -4 c0 -8 -5 -12 -10 -9 -6 4 -8 11 -5 16 9 14 15
11 15 -7z m-4 -41 c-9 -9 -36 18 -36 35 0 12 5 11 21 -7 12 -12 18 -25 15 -28z
m72 -38 c-3 -3 -9 2 -12 12 -6 14 -5 15 5 6 7 -7 10 -15 7 -18z m-48 -15 c0
-5 -7 -7 -15 -4 -8 4 -15 8 -15 10 0 2 7 4 15 4 8 0 15 -4 15 -10z m23 -23 c3
-8 1 -20 -4 -28 -6 -10 -9 -7 -9 14 0 29 5 35 13 14z m-23 -47 c0 -5 -4 -10
-10 -10 -5 0 -10 5 -10 10 0 6 5 10 10 10 6 0 10 -4 10 -10z m93 -155 c-7 -21
-13 -19 -13 6 0 11 4 18 10 14 5 -3 7 -12 3 -20z m-109 -69 c-3 -9 -15 -21
-26 -27 -19 -10 -19 -10 -3 15 10 14 14 26 11 26 -4 0 -4 5 0 11 10 16 26 -5
18 -25z m81 5 c-3 -12 -11 -21 -16 -21 -6 0 -8 3 -6 8 2 4 7 16 11 26 9 25 20
13 11 -13z m-65 -811 c0 -5 -7 -10 -16 -10 -8 0 -12 5 -9 10 3 6 10 10 16 10
5 0 9 -4 9 -10z m90 -681 c0 -5 -4 -9 -10 -9 -5 0 -10 7 -10 16 0 8 5 12 10 9
6 -3 10 -10 10 -16z"/>
<path d="M940 7246 c0 -2 7 -6 15 -10 8 -3 15 -1 15 4 0 6 -7 10 -15 10 -8 0
-15 -2 -15 -4z"/>
<path d="M1161 7233 c7 -12 15 -20 18 -17 3 2 -3 12 -13 22 -17 16 -18 16 -5
-5z"/>
<path d="M2032 7233 c-41 -17 -52 -41 -27 -59 23 -17 53 -9 77 20 35 42 9 63
-50 39z m48 -23 c0 -5 -2 -10 -4 -10 -3 0 -8 5 -11 10 -3 6 -1 10 4 10 6 0 11
-4 11 -10z"/>
<path d="M2274 7228 c-4 -14 -9 -16 -24 -8 -29 15 -87 12 -94 -5 -3 -8 -17
-15 -31 -15 -16 0 -24 -4 -20 -11 4 -5 17 -9 28 -8 37 2 48 -1 42 -11 -4 -6
10 -17 29 -25 20 -9 36 -19 36 -24 0 -5 12 -12 27 -16 15 -3 30 -10 33 -14 3
-3 35 -21 72 -39 37 -18 70 -37 73 -42 3 -6 155 -10 365 -10 l359 0 20 29 c25
34 27 64 6 81 -20 16 -19 35 2 67 16 25 16 26 -6 44 -21 17 -42 19 -200 19
-97 0 -296 1 -444 3 -247 2 -268 1 -273 -15z"/>
<path d="M3293 7240 c-25 -4 -39 -16 -64 -53 l-32 -48 18 -33 c19 -34 17 -45
-11 -84 l-16 -22 789 0 c717 1 792 2 813 17 22 15 23 15 17 0 -6 -15 5 -17
104 -17 71 0 108 4 104 10 -3 6 1 10 9 10 9 0 16 -4 16 -10 0 -14 84 -12 98 2
9 9 12 9 12 0 0 -21 53 -9 74 16 10 13 21 21 24 18 3 -3 -3 -15 -13 -26 -17
-19 -11 -19 1368 -20 1485 0 1404 -2 1390 48 -2 11 -1 22 4 25 8 5 11 -9 14
-55 0 -15 13 -17 95 -17 81 0 97 2 114 19 11 11 20 25 20 30 0 6 11 10 25 10
14 0 25 -4 25 -9 0 -5 -6 -8 -12 -7 -7 0 -14 -3 -15 -9 -4 -16 55 -14 61 2 3
8 1 11 -4 8 -13 -8 -13 5 0 25 8 13 11 12 25 -5 8 -11 18 -30 21 -43 8 -29 41
-26 36 3 -2 11 -9 23 -15 27 -7 4 -1 11 16 17 36 14 34 31 -3 31 -37 0 -39 13
-4 28 30 14 22 36 -9 26 -21 -6 -21 -5 3 18 31 30 57 41 63 25 3 -9 12 -8 32
4 32 19 34 34 3 35 -13 1 -33 4 -46 8 -14 5 -24 3 -27 -6 -3 -7 -16 -14 -30
-14 -14 -1 -23 2 -20 6 3 5 -16 8 -41 8 -42 0 -45 -1 -24 -11 13 -7 25 -18 28
-25 3 -10 -4 -9 -24 4 -16 10 -32 22 -35 27 -6 9 -2777 12 -2787 3 -3 -3 5
-15 18 -26 13 -11 18 -20 12 -20 -6 0 -14 5 -17 10 -5 8 -12 7 -23 -2 -13 -11
-14 -10 -8 15 l6 27 -57 0 c-38 0 -62 -5 -75 -17 -17 -15 -18 -15 -18 0 0 13
-9 17 -40 17 -30 0 -38 -3 -34 -14 3 -8 0 -17 -6 -21 -6 -3 -10 -3 -9 2 5 28
-4 33 -60 33 -38 0 -61 -4 -64 -12 -4 -10 -6 -10 -6 0 -1 6 -10 12 -20 12 -16
0 -19 -6 -16 -32 4 -30 3 -31 -10 -15 -7 11 -11 25 -8 33 3 9 -1 14 -12 14 -9
0 -14 -4 -10 -9 3 -5 1 -12 -4 -15 -5 -4 -12 2 -14 11 -4 17 -5 17 -6 1 -1
-21 -8 -23 -26 -5 -10 11 -77 14 -307 16 -662 5 -1345 6 -1375 1z m2132 -20
c-3 -5 -11 -10 -16 -10 -6 0 -7 5 -4 10 3 6 11 10 16 10 6 0 7 -4 4 -10z m135
0 c0 -5 -5 -10 -11 -10 -5 0 -7 5 -4 10 3 6 8 10 11 10 2 0 4 -4 4 -10z m-770
-37 c0 -20 -3 -24 -11 -16 -7 7 -9 19 -6 27 10 24 17 19 17 -11z m393 13 c10
-26 -34 -49 -49 -25 -4 8 1 9 16 4 19 -6 21 -4 15 14 -7 23 10 30 18 7z m-318
-16 c3 -5 2 -10 -4 -10 -5 0 -13 5 -16 10 -3 6 -2 10 4 10 5 0 13 -4 16 -10z
m508 3 c13 -13 -14 -30 -40 -25 -25 5 -25 6 -8 18 20 15 38 18 48 7z m2903 -8
c-3 -8 -1 -15 4 -15 6 0 10 -5 10 -11 0 -8 -5 -8 -15 1 -17 15 -20 40 -4 40 6
0 9 -7 5 -15z m-3696 -3 c0 -4 -10 -9 -22 -9 -18 -2 -20 0 -8 7 18 12 30 13
30 2z m676 -19 c-6 -6 -36 9 -36 18 0 5 9 4 20 -3 10 -7 18 -14 16 -15z m177
1 c-4 -11 -9 -12 -19 -3 -20 16 -17 28 5 22 12 -3 17 -11 14 -19z m137 18 c0
-13 -12 -22 -22 -16 -10 6 -1 24 13 24 5 0 9 -4 9 -8z m310 4 c0 -3 -4 -8 -10
-11 -5 -3 -10 -1 -10 4 0 6 5 11 10 11 6 0 10 -2 10 -4z m2430 -6 c0 -5 -2
-10 -4 -10 -3 0 -8 5 -11 10 -3 6 -1 10 4 10 6 0 11 -4 11 -10z m-3332 -13 c1
-4 0 -7 -3 -7 -3 0 -12 0 -20 0 -8 0 -15 4 -15 8 0 10 34 9 38 -1z m2068 -6
c0 -11 -3 -18 -6 -17 -3 2 -14 6 -25 10 -16 6 -17 9 -5 16 23 15 36 12 36 -9z
m-1136 -1 c0 -5 -5 -10 -11 -10 -5 0 -7 5 -4 10 3 6 8 10 11 10 2 0 4 -4 4
-10z m-1070 -10 c0 -5 -2 -10 -4 -10 -3 0 -8 5 -11 10 -3 6 -1 10 4 10 6 0 11
-4 11 -10z m30 -6 c0 -8 -5 -12 -10 -9 -6 4 -8 11 -5 16 9 14 15 11 15 -7z
m310 7 c0 -5 -7 -12 -16 -15 -14 -5 -15 -4 -4 9 14 17 20 19 20 6z m2948 -16
c-3 -3 -9 2 -12 12 -6 14 -5 15 5 6 7 -7 10 -15 7 -18z m232 15 c0 -5 -4 -10
-10 -10 -5 0 -10 5 -10 10 0 6 5 10 10 10 6 0 10 -4 10 -10z m-3568 -22 c-7
-7 -12 -8 -12 -2 0 14 12 26 19 19 2 -3 -1 -11 -7 -17z m303 12 c3 -5 1 -10
-4 -10 -6 0 -11 5 -11 10 0 6 2 10 4 10 3 0 8 -4 11 -10z m156 -31 c-9 -22
-10 -22 -10 -3 -1 11 2 24 6 27 12 12 14 0 4 -24z m2998 10 c-16 -10 -23 -4
-14 10 3 6 11 8 17 5 6 -4 5 -9 -3 -15z m-3749 1 c0 -5 -2 -10 -4 -10 -3 0 -8
5 -11 10 -3 6 -1 10 4 10 6 0 11 -4 11 -10z m1001 -13 c-10 -9 -11 -8 -5 6 3
10 9 15 12 12 3 -3 0 -11 -7 -18z m-396 3 c3 -5 1 -10 -4 -10 -6 0 -11 5 -11
10 0 6 2 10 4 10 3 0 8 -4 11 -10z m114 -35 c0 -5 -4 -3 -9 5 -5 8 -9 22 -9
30 0 16 17 -16 18 -35z m2991 18 c0 -5 -4 -15 -10 -23 -11 -18 -25 -7 -17 15
6 15 27 21 27 8z m-4375 -13 c3 -5 2 -10 -4 -10 -5 0 -13 5 -16 10 -3 6 -2 10
4 10 5 0 13 -4 16 -10z m1275 6 c0 -3 -4 -8 -10 -11 -5 -3 -10 -1 -10 4 0 6 5
11 10 11 6 0 10 -2 10 -4z m70 -16 c-24 -15 -36 -11 -14 4 10 8 21 12 24 10 2
-3 -2 -9 -10 -14z m250 10 c0 -5 -5 -10 -11 -10 -5 0 -7 5 -4 10 3 6 8 10 11
10 2 0 4 -4 4 -10z m150 -6 c0 -8 -4 -12 -10 -9 -5 3 -10 10 -10 16 0 5 5 9
10 9 6 0 10 -7 10 -16z m385 6 c3 -5 1 -10 -4 -10 -6 0 -11 5 -11 10 0 6 2 10
4 10 3 0 8 -4 11 -10z m-1765 -4 c0 -11 -19 -15 -25 -6 -3 5 1 10 9 10 9 0 16
-2 16 -4z m315 -6 c3 -5 1 -10 -4 -10 -6 0 -11 5 -11 10 0 6 2 10 4 10 3 0 8
-4 11 -10z m205 6 c0 -3 -4 -8 -10 -11 -5 -3 -10 -1 -10 4 0 6 5 11 10 11 6 0
10 -2 10 -4z m600 -6 c0 -5 -5 -10 -11 -10 -5 0 -7 5 -4 10 3 6 8 10 11 10 2
0 4 -4 4 -10z m-300 -4 c0 -2 -7 -6 -15 -10 -8 -3 -15 -1 -15 4 0 6 7 10 15
10 8 0 15 -2 15 -4z m180 -20 c0 -10 -7 -12 -22 -8 -21 5 -21 6 -2 13 10 4 20
8 22 8 1 1 2 -5 2 -13z m265 4 c-3 -5 -10 -10 -16 -10 -5 0 -9 5 -9 10 0 6 7
10 16 10 8 0 12 -4 9 -10z m39 -5 c-4 -8 -11 -12 -16 -9 -6 4 -5 10 3 15 19
12 19 11 13 -6z"/>
<path d="M9037 7244 c-3 -3 -3 -13 0 -22 5 -12 2 -14 -13 -8 -40 16 -64 15
-108 -4 -25 -10 -46 -22 -46 -25 0 -3 23 -3 51 -1 45 4 51 2 58 -17 5 -12 6
-28 4 -34 -3 -7 0 -13 7 -13 6 0 8 5 5 10 -3 6 -3 10 0 10 10 0 54 -54 55 -67
0 -6 8 -18 18 -25 10 -7 21 -21 25 -30 7 -20 -231 -18 2137 -18 734 0 1337 0
1340 0 3 0 -4 7 -14 15 -11 8 -36 15 -56 15 -21 0 -50 10 -72 25 -20 14 -39
25 -42 25 -16 0 -82 55 -108 91 -16 23 -38 44 -49 46 -10 3 -19 9 -19 13 0 11
3 11 -1210 10 -1123 -1 -1050 0 -1050 -11 0 -15 -45 -17 -72 -3 -21 11 -69 15
-201 15 -217 0 -209 1 -202 -11 3 -5 1 -10 -4 -10 -6 0 -11 5 -11 10 0 15
-177 13 -183 -2 -4 -10 -6 -10 -6 0 -1 14 -41 17 -41 3 0 -6 -12 -4 -26 4 -29
15 -66 2 -58 -20 3 -6 -2 -12 -11 -12 -8 0 -15 4 -15 9 0 5 -5 6 -12 2 -8 -5
-9 -2 -5 11 6 14 3 16 -11 13 -11 -3 -26 -2 -34 3 -8 5 -18 6 -21 3z m113
-104 c0 -5 -5 -10 -11 -10 -5 0 -7 5 -4 10 3 6 8 10 11 10 2 0 4 -4 4 -10z
m265 -10 c3 -5 1 -10 -4 -10 -6 0 -11 5 -11 10 0 6 2 10 4 10 3 0 8 -4 11 -10z
m-60 -20 c3 -5 1 -10 -4 -10 -6 0 -11 5 -11 10 0 6 2 10 4 10 3 0 8 -4 11 -10z
m-211 -22 c-10 -13 -20 -25 -22 -28 -2 -3 -2 4 0 15 2 17 18 31 37 34 2 1 -4
-9 -15 -21z m166 -29 c0 -6 -4 -7 -10 -4 -5 3 -10 11 -10 16 0 6 5 7 10 4 6
-3 10 -11 10 -16z m45 11 c-3 -5 -12 -10 -18 -10 -7 0 -6 4 3 10 19 12 23 12
15 0z"/>
<path d="M12430 7228 c-56 -14 -80 -17 -97 -9 -20 9 -23 8 -23 -12 1 -40 25
-61 125 -109 22 -10 48 -23 57 -28 10 -6 29 -10 42 -10 14 0 37 -13 54 -30
l30 -29 416 0 c376 0 417 2 433 17 16 16 16 16 10 0 -5 -13 -1 -18 13 -18 11
0 20 6 20 13 0 8 3 9 8 1 5 -8 104 -12 316 -13 171 -1 312 -4 315 -7 4 -3 6
-957 6 -2120 0 -1638 3 -2114 12 -2114 22 0 24 -19 4 -39 -16 -16 -17 -22 -6
-31 7 -6 11 -21 9 -33 -2 -12 -2 -16 2 -9 8 17 24 15 24 -4 0 -11 7 -8 24 10
25 28 38 33 35 14 -5 -29 13 -48 37 -42 17 4 24 2 24 -8 0 -8 11 -20 24 -26
19 -8 26 -7 39 9 13 15 17 41 16 131 0 62 0 428 1 813 0 476 -3 701 -10 703
-5 2 -8 8 -5 13 4 5 -1 6 -9 3 -11 -4 -16 0 -16 10 0 9 -6 16 -14 16 -9 0 -12
-8 -8 -25 2 -14 0 -25 -6 -25 -6 0 -9 8 -7 18 1 9 -2 22 -7 29 -6 7 -4 14 4
20 8 4 24 25 37 46 12 20 27 37 32 37 18 0 9 17 -16 30 -14 7 -25 18 -25 23 0
6 8 3 18 -6 10 -10 22 -17 25 -17 11 0 8 48 -3 55 -5 3 -10 13 -10 21 0 8 4
13 8 10 4 -2 9 9 10 25 2 20 -2 29 -13 29 -9 0 -12 -6 -8 -17 6 -16 5 -16 -10
-4 -23 18 -21 25 8 41 21 11 25 20 23 44 -2 19 -9 31 -18 31 -9 0 -14 10 -15
29 0 24 -5 29 -29 32 -15 1 -30 5 -33 8 -11 11 10 26 37 26 35 0 60 9 60 21 0
5 -14 18 -30 28 -26 15 -28 20 -16 30 16 14 40 6 31 -10 -4 -5 -2 -9 3 -9 6 0
10 114 11 278 l1 277 -35 22 c-36 24 -76 90 -81 133 -6 49 -27 125 -37 132 -7
4 -5 15 5 30 9 13 18 56 21 98 3 41 12 95 20 120 21 63 49 218 42 229 -3 5 0
13 5 16 6 4 10 17 9 28 -4 53 2 118 10 113 10 -6 5 -87 -10 -181 -6 -33 -15
-89 -21 -125 -5 -36 -15 -74 -20 -84 -6 -10 -12 -55 -13 -100 -2 -45 -8 -94
-14 -109 -8 -20 -8 -34 -1 -48 6 -10 8 -19 5 -19 -3 0 2 -16 10 -36 8 -20 15
-47 15 -59 0 -37 28 -93 55 -111 14 -9 28 -15 30 -12 5 5 7 880 2 1413 -2 332
-3 337 -69 387 -46 35 -89 41 -288 38 -96 -1 -186 -2 -200 -1 -20 1 -22 -1
-10 -9 13 -8 13 -10 -2 -10 -9 0 -18 4 -20 9 -3 11 -344 19 -354 9 -3 -4 -16
-3 -29 2 -13 5 -25 7 -27 5 -4 -5 -108 -7 -308 -5 -85 0 -249 1 -364 1 -115 0
-212 2 -215 3 -3 2 -40 -5 -81 -16z m1010 -3 c0 -4 -7 -19 -15 -35 -17 -33
-32 -38 -42 -15 -8 22 6 33 18 15 8 -11 9 -8 5 13 -5 22 -3 27 14 27 11 0 20
-2 20 -5z m355 -15 c3 -5 1 -10 -4 -10 -6 0 -11 5 -11 10 0 6 2 10 4 10 3 0 8
-4 11 -10z m-250 -20 c-3 -5 -13 -10 -21 -10 -8 0 -14 5 -14 10 0 6 9 10 21
10 11 0 17 -4 14 -10z m211 -14 c-1 -20 -4 -22 -19 -14 -15 7 -16 12 -6 24 17
21 27 17 25 -10z m-736 0 c0 -3 -4 -8 -10 -11 -5 -3 -10 -1 -10 4 0 6 5 11 10
11 6 0 10 -2 10 -4z m775 -6 c9 -14 -14 -52 -27 -44 -7 4 -7 9 1 14 7 3 9 14
5 23 -7 18 11 24 21 7z m-289 -37 c-11 -11 -17 4 -9 23 7 18 8 18 11 1 2 -10
1 -21 -2 -24z m-146 17 c0 -5 -4 -10 -10 -10 -5 0 -10 5 -10 10 0 6 5 10 10
10 6 0 10 -4 10 -10z m365 -8 c-3 -3 -11 0 -18 7 -9 10 -8 11 6 5 10 -3 15 -9
12 -12z m-185 -2 c0 -5 -2 -10 -4 -10 -3 0 -8 5 -11 10 -3 6 -1 10 4 10 6 0
11 -4 11 -10z m290 0 c0 -5 -4 -10 -10 -10 -5 0 -10 5 -10 10 0 6 5 10 10 10
6 0 10 -4 10 -10z m37 -25 c-4 -8 -12 -15 -19 -14 -10 0 -10 2 0 6 6 2 12 12
12 21 0 8 3 13 6 9 4 -3 4 -13 1 -22z m-443 -6 c-3 -5 -10 -7 -15 -3 -5 3 -7
10 -3 15 3 5 10 7 15 3 5 -3 7 -10 3 -15z m252 -15 c-17 -16 -32 -18 -41 -4
-7 11 35 31 48 23 4 -2 1 -11 -7 -19z m74 12 c0 -3 -4 -8 -10 -11 -5 -3 -10
-1 -10 4 0 6 5 11 10 11 6 0 10 -2 10 -4z m40 -6 c0 -5 -4 -10 -10 -10 -5 0
-10 5 -10 10 0 6 5 10 10 10 6 0 10 -4 10 -10z m40 0 c0 -5 -4 -10 -10 -10 -5
0 -10 5 -10 10 0 6 5 10 10 10 6 0 10 -4 10 -10z m-550 -20 c0 -11 -4 -20 -9
-20 -14 0 -23 18 -16 30 10 17 25 11 25 -10z m37 -2 c-3 -8 -6 -5 -6 6 -1 11
2 17 5 13 3 -3 4 -12 1 -19z m303 -8 c0 -16 -4 -30 -10 -30 -5 0 -10 7 -10 16
0 8 -4 12 -10 9 -14 -9 -12 3 3 20 19 22 27 18 27 -15z m295 10 c-3 -5 -11
-10 -16 -10 -6 0 -7 5 -4 10 3 6 11 10 16 10 6 0 7 -4 4 -10z m-125 -20 c0 -5
-2 -10 -4 -10 -3 0 -8 5 -11 10 -3 6 -1 10 4 10 6 0 11 -4 11 -10z m80 0 c0
-5 -4 -10 -10 -10 -5 0 -10 5 -10 10 0 6 5 10 10 10 6 0 10 -4 10 -10z m-320
-14 c0 -3 -4 -8 -10 -11 -5 -3 -10 -1 -10 4 0 6 5 11 10 11 6 0 10 -2 10 -4z
m-250 -16 c0 -5 -4 -10 -10 -10 -5 0 -10 5 -10 10 0 6 5 10 10 10 6 0 10 -4
10 -10z m1065 -690 c-15 -34 -16 -34 -10 -5 4 17 9 46 13 65 l7 35 3 -30 c2
-17 -4 -46 -13 -65z m-175 -790 c8 -5 11 -10 5 -10 -5 0 -17 5 -25 10 -8 5
-10 10 -5 10 6 0 17 -5 25 -10z m140 -220 c0 -5 -4 -10 -10 -10 -5 0 -10 5
-10 10 0 6 5 10 10 10 6 0 10 -4 10 -10z m0 -244 c0 -3 -4 -8 -10 -11 -5 -3
-10 -1 -10 4 0 6 5 11 10 11 6 0 10 -2 10 -4z m10 -476 c0 -5 -5 -10 -11 -10
-5 0 -7 5 -4 10 3 6 8 10 11 10 2 0 4 -4 4 -10z m0 -44 c0 -3 -4 -8 -10 -11
-5 -3 -10 -1 -10 4 0 6 5 11 10 11 6 0 10 -2 10 -4z m-30 -121 c0 -8 -4 -15
-8 -15 -5 0 -9 7 -9 15 0 8 4 15 9 15 4 0 8 -7 8 -15z m25 -85 c-3 -5 -11 -10
-16 -10 -6 0 -7 5 -4 10 3 6 11 10 16 10 6 0 7 -4 4 -10z m25 -155 c-7 -9 -15
-13 -17 -11 -7 7 7 26 19 26 6 0 6 -6 -2 -15z m-63 -1367 c-3 -7 -5 -2 -5 12
0 14 2 19 5 13 2 -7 2 -19 0 -25z m-40 -10 c-3 -8 -6 -5 -6 6 -1 11 2 17 5 13
3 -3 4 -12 1 -19z m-17 -42 c0 -3 -4 -8 -10 -11 -5 -3 -10 -1 -10 4 0 6 5 11
10 11 6 0 10 -2 10 -4z m60 -16 c0 -5 -4 -10 -10 -10 -5 0 -10 5 -10 10 0 6 5
10 10 10 6 0 10 -4 10 -10z m40 0 c0 -5 -4 -10 -9 -10 -6 0 -13 5 -16 10 -3 6
1 10 9 10 9 0 16 -4 16 -10z m-36 -36 c3 -8 1 -14 -4 -14 -6 0 -10 4 -10 10 0
5 -7 7 -15 4 -8 -4 -15 -2 -15 3 0 15 38 13 44 -3z m1 -43 c-3 -6 -11 -11 -17
-11 -6 0 -6 6 2 15 14 17 26 13 15 -4z m22 -47 c-3 -3 -12 -4 -19 -1 -8 3 -5
6 6 6 11 1 17 -2 13 -5z"/>
<path d="M1050 7236 c0 -2 7 -6 15 -10 8 -3 15 -1 15 4 0 6 -7 10 -15 10 -8 0
-15 -2 -15 -4z"/>
<path d="M1100 7230 c0 -5 5 -10 10 -10 6 0 10 5 10 10 0 6 -4 10 -10 10 -5 0
-10 -4 -10 -10z"/>
<path d="M1260 7220 c0 -11 5 -20 11 -20 6 0 9 6 6 14 -4 9 1 17 11 19 12 3
11 5 -5 6 -17 1 -23 -5 -23 -19z"/>
<path d="M1460 7229 c0 -5 5 -7 10 -4 6 3 10 8 10 11 0 2 -4 4 -10 4 -5 0 -10
-5 -10 -11z"/>
<path d="M1555 7230 c3 -5 22 -10 41 -10 19 0 34 5 34 10 0 6 -18 10 -41 10
-24 0 -38 -4 -34 -10z"/>
<path d="M8560 7231 c-16 -4 -26 -15 -28 -30 -3 -18 0 -22 12 -18 9 4 16 1 16
-6 0 -9 2 -9 8 1 5 7 19 14 32 17 34 7 37 15 6 15 -21 0 -27 4 -22 15 3 8 4
15 3 14 -1 -1 -13 -4 -27 -8z"/>
<path d="M1139 7216 c6 -7 9 -20 5 -29 -7 -19 13 -32 30 -18 7 6 16 8 19 4 4
-3 7 1 7 10 0 10 -8 17 -19 17 -10 0 -21 7 -25 15 -3 8 -11 15 -17 15 -9 0 -9
-3 0 -14z"/>
<path d="M1636 7208 c-15 -17 -16 -24 -7 -45 7 -14 17 -23 25 -20 7 3 19 -3
27 -14 7 -10 19 -19 25 -19 7 0 15 -7 18 -16 10 -26 7 -28 -14 -9 -15 14 -20
15 -19 4 2 -22 17 -66 18 -51 1 6 6 12 11 12 6 0 10 -6 9 -12 -4 -33 2 -38 45
-36 39 2 43 5 42 25 0 13 -4 23 -8 23 -5 0 -8 9 -8 20 0 11 5 20 11 20 14 0
43 29 36 37 -3 3 -13 -2 -22 -11 -22 -22 -28 -20 -20 5 6 19 5 19 -15 7 -18
-11 -23 -10 -35 6 -8 11 -29 21 -47 23 -39 4 -44 9 -29 26 13 16 5 47 -13 46
-6 0 -19 -10 -30 -21z m138 -183 c3 -8 1 -15 -4 -15 -6 0 -10 7 -10 15 0 8 2
15 4 15 2 0 6 -7 10 -15z"/>
<path d="M1545 7190 c3 -5 12 -7 20 -3 21 7 19 13 -6 13 -11 0 -18 -4 -14 -10z"/>
<path d="M8500 7190 c-13 -8 -12 -10 3 -10 9 0 17 5 17 10 0 12 -1 12 -20 0z"/>
<path d="M1400 7180 c0 -5 7 -7 15 -4 8 4 15 8 15 10 0 2 -7 4 -15 4 -8 0 -15
-4 -15 -10z"/>
<path d="M1890 7180 c0 -5 5 -10 11 -10 5 0 7 5 4 10 -3 6 -8 10 -11 10 -2 0
-4 -4 -4 -10z"/>
<path d="M8782 7167 c-12 -6 -22 -13 -22 -17 0 -12 74 -18 82 -6 15 23 -24 39
-60 23z"/>
<path d="M1910 7150 c0 -5 5 -10 10 -10 6 0 10 5 10 10 0 6 -4 10 -10 10 -5 0
-10 -4 -10 -10z"/>
<path d="M8532 7141 c10 -17 20 -21 40 -17 35 7 47 -11 13 -20 -14 -3 -25 -11
-25 -16 0 -6 7 -7 18 -2 9 4 32 8 50 9 18 1 35 5 38 8 3 3 13 3 22 0 10 -4 13
-2 8 5 -4 7 -2 10 6 7 7 -3 18 3 25 14 17 27 -11 37 -44 16 -13 -9 -28 -13
-33 -10 -5 3 -22 8 -37 11 -16 2 -43 7 -61 10 -33 6 -33 6 -20 -15z"/>
<path d="M1353 7133 c-7 -2 -13 -9 -13 -15 0 -6 6 -8 14 -5 13 5 13 1 1 -34
-8 -21 -13 -39 -12 -40 19 -7 44 -6 55 3 9 8 19 8 36 -1 19 -11 29 -10 53 2
28 15 31 14 49 -6 10 -12 18 -25 16 -29 -2 -9 22 -11 31 -2 3 3 -3 21 -14 39
-19 32 -21 32 -55 22 -46 -14 -64 7 -31 34 20 16 20 18 4 19 -10 0 -15 -4 -12
-10 3 -5 -1 -10 -10 -10 -16 0 -49 -16 -77 -38 -9 -8 -18 -9 -22 -4 -8 13 12
28 49 36 28 7 29 8 11 21 -10 8 -22 12 -27 10 -4 -3 -10 -1 -14 5 -7 11 -13
11 -32 3z"/>
<path d="M1432 7128 c6 -18 28 -21 28 -4 0 9 -7 16 -16 16 -9 0 -14 -5 -12
-12z"/>
<path d="M8454 7124 c3 -9 6 -20 6 -25 0 -5 5 -9 11 -9 6 0 9 7 5 15 -3 8 0
15 7 15 8 0 6 4 -3 10 -22 14 -33 12 -26 -6z"/>
<path d="M1536 7105 c16 -24 34 -34 34 -17 -1 13 -27 42 -39 42 -7 0 -6 -9 5
-25z"/>
<path d="M2109 7113 c-8 -11 -21 -23 -29 -28 -13 -8 -13 -7 -1 8 11 14 11 17
-1 17 -28 0 -56 -37 -54 -72 1 -31 4 -33 39 -36 21 -2 45 2 53 9 11 9 18 9 26
1 8 -8 58 -12 148 -12 121 1 133 2 116 15 -11 8 -30 15 -42 15 -11 0 -38 11
-58 25 -20 14 -43 25 -50 25 -8 0 -16 6 -19 14 -3 7 -23 16 -44 19 -21 3 -45
8 -54 12 -11 4 -22 -1 -30 -12z m91 -23 c0 -5 -5 -10 -11 -10 -5 0 -7 5 -4 10
3 6 8 10 11 10 2 0 4 -4 4 -10z m-85 -20 c3 -5 -1 -10 -9 -10 -9 0 -16 5 -16
10 0 6 4 10 9 10 6 0 13 -4 16 -10z"/>
<path d="M8918 7123 c7 -3 16 -2 19 1 4 3 -2 6 -13 5 -11 0 -14 -3 -6 -6z"/>
<path d="M8825 7110 c-4 -6 -4 -10 -1 -10 2 0 11 -3 20 -6 9 -3 16 -2 16 4 0
14 -28 23 -35 12z"/>
<path d="M1222 7080 c0 -14 2 -19 5 -12 2 6 2 18 0 25 -3 6 -5 1 -5 -13z"/>
<path d="M1610 7090 c0 -5 5 -10 11 -10 5 0 7 5 4 10 -3 6 -8 10 -11 10 -2 0
-4 -4 -4 -10z"/>
<path d="M1011 7063 c-20 -25 -22 -25 -35 -8 -10 14 -15 15 -21 5 -4 -7 -2
-16 6 -22 11 -7 11 -11 2 -15 -27 -10 -11 -18 41 -21 40 -2 58 1 70 14 9 9 20
14 23 11 3 -4 14 -2 24 4 15 8 18 6 12 -8 -5 -15 -3 -15 10 2 13 15 17 17 17
5 1 -10 4 -9 10 5 13 30 12 38 -6 31 -8 -3 -12 -2 -9 3 3 5 1 12 -5 16 -6 3
-14 -4 -19 -17 -8 -20 -10 -21 -16 -5 -9 21 -25 23 -25 2 0 -21 -13 -19 -28 5
-16 27 -26 25 -51 -7z"/>
<path d="M1995 7081 c-3 -5 -1 -12 5 -16 5 -3 10 1 10 9 0 18 -6 21 -15 7z"/>
<path d="M8497 7083 c-2 -5 -2 -14 -1 -20 1 -7 2 -21 3 -30 1 -13 5 -10 16 11
8 15 15 32 15 37 0 11 -27 12 -33 2z"/>
<path d="M8820 7080 c0 -5 5 -10 10 -10 6 0 10 5 10 10 0 6 -4 10 -10 10 -5 0
-10 -4 -10 -10z"/>
<path d="M1295 7065 c-16 -7 -29 -16 -27 -19 1 -3 2 -7 1 -8 -7 -24 -5 -38 7
-38 8 0 11 6 7 16 -4 10 1 17 14 20 10 3 24 14 31 25 14 22 9 23 -33 4z"/>
<path d="M1232 7050 c-15 -24 -15 -30 -2 -30 6 0 10 7 10 15 0 8 5 15 10 15 6
0 10 5 10 10 0 16 -14 11 -28 -10z"/>
<path d="M1610 7051 c16 -30 24 -31 37 -5 6 13 7 24 3 24 -5 0 -11 -6 -14 -12
-5 -10 -7 -10 -12 0 -3 6 -10 12 -15 12 -6 0 -6 -8 1 -19z"/>
<path d="M8428 7052 c-13 -14 -14 -21 -5 -37 11 -19 11 -19 17 5 5 18 12 24
28 23 15 -2 20 2 16 12 -8 20 -35 18 -56 -3z"/>
<path d="M8570 7060 c0 -5 5 -10 11 -10 5 0 7 5 4 10 -3 6 -8 10 -11 10 -2 0
-4 -4 -4 -10z"/>
<path d="M8623 7055 c-7 -20 6 -33 16 -16 5 7 12 12 17 11 5 -1 10 3 12 9 6
17 -38 13 -45 -4z"/>
<path d="M8960 7059 c0 -5 7 -9 16 -9 11 0 14 -6 9 -22 -6 -17 -4 -20 9 -15 9
4 16 2 16 -3 0 -6 5 -10 11 -10 6 0 9 8 7 18 -2 9 -9 16 -16 15 -6 -2 -9 4 -6
12 4 8 2 15 -2 16 -5 0 -17 2 -26 4 -10 2 -18 -1 -18 -6z"/>
<path d="M1187 7019 c4 -13 9 -17 15 -11 11 11 3 32 -12 32 -4 0 -6 -9 -3 -21z"/>
<path d="M1312 7028 c-7 -7 -12 -16 -12 -20 0 -11 23 -6 32 7 18 24 1 34 -20
13z"/>
<path d="M1980 7031 c0 -6 4 -13 10 -16 6 -3 7 1 4 9 -7 18 -14 21 -14 7z"/>
<path d="M1472 7018 c2 -6 10 -13 16 -14 7 -1 8 0 2 3 -5 2 -8 9 -4 14 3 5 0
9 -6 9 -7 0 -10 -5 -8 -12z"/>
<path d="M8570 7021 c0 -16 24 -25 28 -12 4 11 6 11 14 0 8 -12 9 -12 6 0 -4
16 -48 26 -48 12z"/>
<path d="M9045 7020 c4 -6 11 -8 16 -5 14 9 11 15 -7 15 -8 0 -12 -5 -9 -10z"/>
<path d="M1350 7010 c0 -5 5 -10 10 -10 6 0 10 5 10 10 0 6 -4 10 -10 10 -5 0
-10 -4 -10 -10z"/>
<path d="M1690 7009 c0 -5 5 -7 10 -4 6 3 10 8 10 11 0 2 -4 4 -10 4 -5 0 -10
-5 -10 -11z"/>
<path d="M8630 6703 c-8 -3 -33 -24 -56 -47 -60 -61 -77 -73 -117 -80 -32 -6
-37 -11 -42 -44 -9 -55 -37 -140 -99 -306 -43 -115 -53 -152 -44 -159 10 -6 9
-7 -2 -4 -15 4 -64 -108 -146 -333 -19 -52 -38 -104 -43 -115 -12 -26 -91
-225 -135 -340 -62 -163 -88 -230 -102 -262 -8 -17 -14 -34 -14 -38 0 -20 -54
-128 -86 -171 -25 -34 -85 -59 -163 -68 -55 -7 -63 -15 -59 -56 l3 -32 320 0
320 -1 0 39 c0 37 -2 39 -40 47 -136 29 -150 37 -148 91 1 32 149 470 178 525
8 16 22 31 30 35 9 3 133 6 275 6 243 0 260 -1 277 -19 10 -11 49 -109 86
-218 38 -109 77 -220 88 -246 13 -31 19 -65 17 -95 -3 -45 -4 -47 -43 -59 -22
-6 -58 -15 -80 -20 -37 -7 -40 -11 -43 -45 -2 -26 1 -38 10 -39 7 0 185 -1
396 -2 l383 -2 5 22 c12 44 2 56 -61 70 -33 7 -70 15 -82 18 -51 12 -114 91
-134 170 -8 32 -135 397 -194 560 -21 55 -48 134 -60 175 -13 41 -33 102 -45
135 -20 54 -156 445 -193 555 -8 25 -25 78 -38 118 -13 40 -28 72 -36 72 -7 0
-10 6 -7 15 4 8 1 21 -5 29 -6 7 -8 16 -5 19 4 3 3 14 -1 24 -5 10 -9 24 -11
32 -4 22 -38 49 -54 44z m40 -113 c0 -5 -4 -10 -10 -10 -5 0 -10 5 -10 10 0 6
5 10 10 10 6 0 10 -4 10 -10z m33 -98 c-15 -2 -20 -8 -16 -19 5 -13 3 -13 -15
-2 l-21 13 22 11 c12 6 29 9 37 6 11 -4 9 -7 -7 -9z m-218 -304 c10 -24 17
-46 17 -50 -1 -3 35 -114 79 -245 97 -286 108 -328 90 -346 -9 -9 -66 -12
-221 -11 -114 1 -213 5 -218 8 -13 8 -3 45 63 226 30 80 74 204 99 275 26 72
51 138 56 148 6 10 8 22 5 27 -4 6 -2 10 3 10 5 0 17 -19 27 -42z m285 -212
c0 -2 -7 -7 -16 -10 -8 -3 -12 -2 -9 4 6 10 25 14 25 6z m-490 -10 c0 -3 -4
-8 -10 -11 -5 -3 -10 -1 -10 4 0 6 5 11 10 11 6 0 10 -2 10 -4z m760 -937 c0
-5 -4 -9 -10 -9 -5 0 -10 7 -10 16 0 8 5 12 10 9 6 -3 10 -10 10 -16z"/>
<path d="M865 6650 c-11 -12 -14 -26 -9 -44 7 -28 24 -36 24 -11 0 8 8 15 18
14 10 0 12 -3 5 -6 -7 -2 -13 -12 -13 -20 0 -12 7 -14 31 -9 18 3 37 2 43 -2
6 -5 32 -16 57 -26 52 -19 79 -45 100 -96 15 -38 18 -323 5 -490 -24 -311 -25
-325 -31 -460 -19 -419 -33 -557 -66 -657 -23 -71 -49 -89 -151 -103 -34 -5
-65 -14 -69 -21 -6 -11 -3 -59 5 -67 5 -5 44 -6 132 -4 68 2 82 5 87 20 2 9
21 71 42 137 38 123 44 146 65 250 6 33 16 65 21 71 5 6 9 31 9 55 -2 146 14
258 35 237 11 -11 -18 -284 -37 -358 -11 -41 -26 -109 -33 -150 -7 -41 -23
-97 -35 -125 -13 -30 -19 -59 -15 -73 4 -16 0 -31 -10 -42 -16 -18 -9 -18 182
-19 109 0 205 -1 213 -3 11 -2 16 8 18 34 4 44 -8 52 -90 62 -72 9 -117 39
-136 91 -17 49 -19 578 -3 970 6 138 11 287 12 333 1 45 5 84 8 87 4 2 13 -13
20 -33 17 -49 94 -228 138 -322 19 -41 42 -91 50 -110 14 -31 115 -257 179
-398 14 -30 56 -120 93 -200 71 -150 211 -483 211 -501 0 -17 31 -41 54 -41
31 0 47 22 81 110 24 64 74 177 130 295 8 17 60 127 116 245 154 327 462 950
467 946 2 -3 4 -310 4 -683 0 -594 -1 -683 -15 -715 -18 -43 -49 -60 -144 -79
-66 -12 -74 -20 -66 -62 6 -32 36 -43 88 -33 31 6 660 9 710 3 17 -2 20 4 20
38 l0 40 -83 17 c-45 9 -90 22 -98 29 -49 41 -59 123 -69 559 -3 168 -8 323
-10 345 -3 22 -5 195 -5 385 -1 383 4 428 57 466 31 23 105 44 153 44 47 0 70
16 70 50 0 16 -5 32 -12 36 -6 4 -140 7 -297 6 l-286 -1 -11 -38 c-6 -21 -14
-47 -19 -58 -4 -11 -21 -53 -37 -94 -26 -67 -137 -294 -487 -1004 -73 -147
-138 -266 -144 -264 -16 5 -147 267 -362 722 -34 72 -78 164 -98 205 -19 41
-54 115 -75 164 -22 49 -47 97 -56 107 -9 11 -12 19 -7 19 4 0 -3 37 -16 81
-12 45 -23 97 -23 115 0 50 5 50 -262 45 -107 -2 -158 -6 -162 -14 -3 -9 -7
-9 -13 0 -10 15 -75 14 -85 -1 -5 -7 -8 -4 -8 7 0 14 -8 17 -45 15 -28 -1 -51
-8 -60 -18z m195 -30 c0 -5 -6 -10 -12 -11 -10 0 -10 -2 0 -6 6 -2 12 -10 12
-16 0 -6 -7 -4 -16 5 -9 9 -13 21 -10 27 9 14 26 14 26 1z m-80 -22 c0 -12 -3
-18 -7 -14 -11 10 -12 36 -2 36 5 0 9 -10 9 -22z m207 -50 c-3 -8 -6 -5 -6 6
-1 11 2 17 5 13 3 -3 4 -12 1 -19z m-67 2 c0 -5 -2 -10 -4 -10 -3 0 -8 5 -11
10 -3 6 -1 10 4 10 6 0 11 -4 11 -10z m190 -160 c0 -5 -4 -10 -10 -10 -5 0
-10 5 -10 10 0 6 5 10 10 10 6 0 10 -4 10 -10z m290 -134 c0 -3 -4 -8 -10 -11
-5 -3 -10 -1 -10 4 0 6 5 11 10 11 6 0 10 -2 10 -4z m1070 -132 c0 -8 -4 -12
-10 -9 -5 3 -10 10 -10 16 0 5 5 9 10 9 6 0 10 -7 10 -16z m14 -50 c3 -8 2
-12 -4 -9 -6 3 -10 10 -10 16 0 14 7 11 14 -7z m-1504 -208 c0 -3 -4 -8 -10
-11 -5 -3 -10 -1 -10 4 0 6 5 11 10 11 6 0 10 -2 10 -4z m36 -173 c4 -50 2
-64 -5 -51 -6 9 -10 27 -9 40 1 12 -2 43 -6 68 -5 34 -4 41 4 28 6 -10 13 -48
16 -85z m-6 -233 c0 -11 -4 -20 -10 -20 -5 0 -10 9 -10 20 0 11 5 20 10 20 6
0 10 -9 10 -20z m1690 0 c0 -5 -2 -10 -4 -10 -3 0 -8 5 -11 10 -3 6 -1 10 4
10 6 0 11 -4 11 -10z m57 -42 c13 -12 23 -33 23 -46 0 -14 6 -33 13 -41 18
-21 68 -141 72 -171 1 -8 5 -31 10 -50 12 -54 13 -101 2 -97 -13 4 -40 116
-33 134 7 19 -4 43 -19 43 -17 0 -28 35 -27 83 1 26 -2 37 -12 37 -8 0 -20 17
-26 38 -7 20 -21 44 -33 53 -11 9 -17 21 -13 28 10 16 16 14 43 -11z m193
-374 c0 -2 -7 -4 -15 -4 -8 0 -15 4 -15 10 0 5 7 7 15 4 8 -4 15 -8 15 -10z
m-41 -154 c0 -10 -3 -8 -9 5 -12 27 -12 43 0 25 5 -8 9 -22 9 -30z"/>
<path d="M3667 6649 c-4 -13 -4 -34 -1 -46 6 -23 16 -27 86 -37 93 -12 124
-53 136 -176 9 -95 6 -1393 -3 -1490 -7 -72 -25 -114 -56 -131 -12 -6 -67 -18
-122 -27 -108 -18 -116 -24 -103 -76 l5 -22 258 4 c142 2 259 5 261 7 9 7 -13
35 -24 31 -8 -3 -14 -1 -14 3 0 5 6 11 13 14 10 3 10 9 0 26 -7 11 -13 29 -13
40 0 10 -7 24 -15 31 -8 7 -15 18 -15 26 0 7 -9 18 -20 24 -15 8 -18 17 -13
40 5 26 2 30 -15 30 -16 0 -20 4 -15 17 5 12 2 15 -9 11 -19 -8 -88 60 -88 85
0 27 17 20 39 -17 12 -19 33 -37 46 -40 14 -4 25 -10 25 -15 0 -5 11 -19 25
-32 13 -13 25 -33 25 -43 0 -11 6 -27 14 -35 18 -20 96 -175 96 -190 0 -8 129
-11 448 -11 246 0 472 -2 503 -6 l57 -6 22 58 c32 86 66 208 86 308 19 99 16
106 -44 106 -31 0 -34 -4 -76 -92 -29 -62 -60 -109 -91 -140 -93 -92 -164
-108 -440 -103 -110 2 -218 9 -239 14 -80 20 -129 83 -140 180 -10 93 -9 632
1 642 13 13 401 13 449 0 21 -6 46 -17 55 -24 22 -16 45 -72 54 -128 3 -24 11
-59 17 -77 10 -32 12 -34 47 -27 19 4 40 9 45 12 5 3 6 42 2 87 -5 69 -7 360
-2 506 l1 45 -45 0 -44 0 -15 -74 c-12 -58 -23 -82 -51 -113 -32 -36 -41 -40
-105 -48 -38 -5 -141 -9 -227 -10 -129 0 -159 3 -172 16 -14 13 -16 61 -16
365 0 419 -10 388 133 391 50 1 143 1 205 0 80 0 112 3 112 11 0 9 3 8 8 0 5
-7 35 -18 67 -24 75 -14 127 -40 154 -78 30 -42 78 -141 85 -178 8 -36 24 -45
67 -36 l31 6 -6 71 c-3 39 -11 123 -16 186 -14 157 -19 182 -37 176 -21 -8
-1196 -8 -1295 0 -83 6 -85 6 -91 -17z m668 -69 c3 -5 1 -10 -4 -10 -6 0 -11
5 -11 10 0 6 2 10 4 10 3 0 8 -4 11 -10z m445 -10 c0 -5 -2 -10 -4 -10 -3 0
-8 5 -11 10 -3 6 -1 10 4 10 6 0 11 -4 11 -10z m210 -130 c0 -5 -2 -10 -4 -10
-3 0 -8 5 -11 10 -3 6 -1 10 4 10 6 0 11 -4 11 -10z m-870 -1270 c0 -5 -5 -10
-11 -10 -5 0 -7 5 -4 10 3 6 8 10 11 10 2 0 4 -4 4 -10z m-90 -490 c0 -5 -5
-10 -11 -10 -5 0 -7 5 -4 10 3 6 8 10 11 10 2 0 4 -4 4 -10z"/>
<path d="M5738 6654 c-113 -6 -211 -15 -217 -18 -9 -6 -17 -76 -8 -76 18 0
128 -23 148 -31 15 -6 35 -26 45 -45 10 -19 21 -34 24 -34 3 0 3 -23 1 -51 -2
-40 1 -54 13 -61 20 -11 21 -29 2 -22 -12 5 -14 -53 -14 -395 0 -271 3 -399
10 -395 7 4 7 0 0 -12 -15 -28 -16 -423 -1 -440 7 -8 7 -14 2 -14 -6 0 -13
-45 -16 -102 -9 -176 -25 -197 -160 -218 -67 -11 -78 -16 -83 -36 -14 -55 -19
-54 381 -60 594 -10 689 -8 810 10 318 50 564 176 735 377 34 41 65 81 68 89
3 8 19 35 34 60 99 157 144 449 102 670 -91 477 -470 764 -1072 810 -162 13
-515 10 -804 -6z m836 -130 c91 -16 217 -61 273 -98 21 -14 54 -37 74 -50 88
-59 194 -214 235 -341 8 -27 19 -59 24 -70 13 -30 31 -189 34 -301 4 -134 -28
-338 -69 -446 -5 -13 -2 -18 11 -19 13 0 11 -4 -8 -11 -16 -5 -28 -16 -28 -23
0 -21 -97 -161 -144 -209 -130 -131 -310 -199 -527 -198 -225 0 -317 55 -349
207 -6 28 -13 160 -15 294 -4 190 -8 246 -19 255 -13 10 -39 116 -28 116 2 0
13 -10 23 -22 l19 -21 0 29 c0 18 -7 34 -20 42 -22 13 -26 37 -9 47 16 11 25
-5 9 -16 -13 -8 -13 -10 0 -19 20 -12 30 31 21 92 -4 23 -6 54 -5 68 2 14 5
153 8 309 6 302 10 343 33 363 44 36 303 49 457 22z m-781 -129 c-3 -9 -8 -14
-10 -11 -3 3 -2 9 2 15 9 16 15 13 8 -4z m1597 -125 c0 -5 -7 -7 -15 -4 -8 4
-15 8 -15 10 0 2 7 4 15 4 8 0 15 -4 15 -10z m-60 -190 c0 -5 -4 -10 -10 -10
-5 0 -10 5 -10 10 0 6 5 10 10 10 6 0 10 -4 10 -10z m-60 -25 c11 -13 10 -14
-4 -9 -9 3 -16 10 -16 15 0 13 6 11 20 -6z m-1270 -106 c-7 -11 -14 -19 -16
-16 -7 7 7 37 17 37 6 0 5 -9 -1 -21z m-160 -65 c0 -14 -3 -14 -15 -4 -8 7
-15 14 -15 16 0 2 7 4 15 4 8 0 15 -7 15 -16z m230 5 c0 -5 -5 -7 -11 -3 -8 4
-9 -1 -4 -17 7 -23 6 -23 -11 -6 -17 15 -17 19 -4 27 20 13 30 12 30 -1z
m-190 -139 c0 -5 -7 -10 -16 -10 -8 0 -12 5 -9 10 3 6 10 10 16 10 5 0 9 -4 9
-10z m-8 -52 c-7 -7 -12 -8 -12 -2 0 14 12 26 19 19 2 -3 -1 -11 -7 -17z m-12
-32 c0 -3 -4 -8 -10 -11 -5 -3 -10 -1 -10 4 0 6 5 11 10 11 6 0 10 -2 10 -4z
m150 -126 c0 -5 -4 -10 -10 -10 -5 0 -10 5 -10 10 0 6 5 10 10 10 6 0 10 -4
10 -10z m9 -46 c-14 -18 -24 -11 -15 11 3 9 11 13 16 10 8 -5 7 -11 -1 -21z
m1299 -109 c-9 -9 -33 -9 -34 0 -1 6 2 9 7 8 5 -2 8 0 8 5 -3 20 3 25 12 9 6
-10 9 -20 7 -22z m22 31 c0 -3 -4 -8 -10 -11 -5 -3 -10 -1 -10 4 0 6 5 11 10
11 6 0 10 -2 10 -4z m-3 -88 c-3 -8 -6 -5 -6 6 -1 11 2 17 5 13 3 -3 4 -12 1
-19z m-1466 -5 c13 -16 12 -17 -3 -4 -10 7 -18 15 -18 17 0 8 8 3 21 -13z
m1429 -34 c0 -5 -14 -9 -31 -9 -16 0 -28 3 -26 8 7 10 57 12 57 1z m-1410
-221 c0 -4 -7 -8 -15 -8 -8 0 -15 4 -15 8 0 5 7 9 15 9 8 0 15 -4 15 -9z m90
-52 c0 -2 -7 -6 -15 -10 -8 -3 -15 -1 -15 4 0 6 7 10 15 10 8 0 15 -2 15 -4z
m-13 -52 c-3 -3 -12 -4 -19 -1 -8 3 -5 6 6 6 11 1 17 -2 13 -5z m1123 -8 c0
-8 -4 -18 -10 -21 -5 -3 -10 3 -10 14 0 12 5 21 10 21 6 0 10 -6 10 -14z
m-1120 -14 c0 -5 -7 -17 -15 -28 -15 -19 -16 -19 -13 1 3 23 28 47 28 27z m54
-43 c-3 -5 -10 -7 -15 -3 -5 3 -7 10 -3 15 3 5 10 7 15 3 5 -3 7 -10 3 -15z
m-60 -54 c16 -12 17 -18 8 -27 -9 -9 -12 -8 -12 5 0 10 -8 17 -21 17 -11 0
-17 5 -14 10 8 13 16 12 39 -5z m-88 -42 c-10 -10 -19 5 -10 18 6 11 8 11 12
0 2 -7 1 -15 -2 -18z m-6 -43 c0 -5 -2 -10 -4 -10 -3 0 -8 5 -11 10 -3 6 -1
10 4 10 6 0 11 -4 11 -10z m15 -80 c3 -5 1 -10 -4 -10 -6 0 -11 5 -11 10 0 6
2 10 4 10 3 0 8 -4 11 -10z"/>
<path d="M9684 6657 c-15 -9 -18 -44 -5 -65 4 -8 40 -18 80 -23 125 -15 151
-37 172 -143 13 -68 12 -1487 -1 -1557 -6 -28 -10 -53 -10 -54 0 -1 -8 -11
-18 -23 -24 -27 -54 -39 -128 -47 -80 -9 -92 -13 -104 -35 -7 -13 -6 -27 2
-46 12 -26 13 -26 83 -20 90 8 1343 8 1383 0 37 -7 48 11 82 131 12 44 28 100
36 125 26 87 44 184 37 191 -13 12 -67 20 -80 11 -6 -4 -21 -31 -32 -60 -26
-65 -77 -147 -118 -188 -17 -17 -57 -41 -89 -54 -54 -21 -76 -24 -249 -26
-304 -5 -389 25 -411 142 -3 21 -9 48 -11 59 -9 45 -3 1415 7 1466 15 78 45
104 144 124 44 9 83 18 88 21 12 8 10 62 -4 70 -16 10 -836 11 -854 1z m336
-1297 c0 -5 -2 -10 -4 -10 -3 0 -8 5 -11 10 -3 6 -1 10 4 10 6 0 11 -4 11 -10z
m10 -270 c0 -5 -2 -10 -4 -10 -3 0 -8 5 -11 10 -3 6 -1 10 4 10 6 0 11 -4 11
-10z m-33 -126 c-3 -3 -12 -4 -19 -1 -8 3 -5 6 6 6 11 1 17 -2 13 -5z m148
-104 c3 -5 1 -10 -4 -10 -6 0 -11 5 -11 10 0 6 2 10 4 10 3 0 8 -4 11 -10z
m-165 -150 c0 -5 -4 -10 -10 -10 -5 0 -10 5 -10 10 0 6 5 10 10 10 6 0 10 -4
10 -10z m230 -29 c0 -5 -9 -11 -20 -14 -22 -6 -28 8 -7 16 19 8 27 8 27 -2z"/>
<path d="M12075 6476 c-38 -12 -88 -32 -111 -44 -164 -84 -275 -270 -275 -462
-1 -251 119 -425 346 -506 70 -24 95 -28 200 -28 107 -1 128 2 194 26 180 67
292 189 337 367 30 118 22 229 -22 346 -59 154 -157 245 -321 298 -110 36
-244 37 -348 3z m273 -65 c90 -46 136 -104 188 -236 25 -65 27 -81 28 -225 1
-139 -2 -163 -23 -229 -29 -87 -88 -167 -144 -194 -20 -10 -68 -23 -105 -29
-229 -34 -395 176 -393 497 1 286 132 452 346 441 36 -2 77 -12 103 -25z m282
-160 c0 -10 -30 -24 -37 -17 -3 3 -2 9 2 15 8 13 35 15 35 2z m-705 -672 c11
-17 -1 -21 -15 -4 -8 9 -8 15 -2 15 6 0 14 -5 17 -11z"/>
<path d="M12922 6457 c2 -15 13 -23 34 -28 42 -8 54 -17 65 -47 9 -22 14 -774
5 -826 -3 -24 -42 -56 -66 -56 -32 0 -50 -11 -50 -31 0 -18 11 -19 225 -19
193 0 225 2 225 15 0 8 1 18 3 23 1 4 -22 10 -52 14 -93 11 -95 16 -97 233
l-2 186 24 9 c13 5 72 8 131 6 102 -4 109 -5 130 -31 13 -14 21 -30 18 -35 -3
-4 0 -22 6 -39 9 -24 16 -31 33 -29 14 2 21 10 20 26 0 12 -1 85 -2 162 -2
130 -3 140 -21 140 -14 0 -22 -12 -30 -45 -17 -67 -37 -76 -175 -76 -65 0
-121 3 -127 7 -10 6 -12 336 -2 374 5 19 13 20 130 20 138 0 166 -9 203 -60
12 -17 26 -46 32 -66 7 -28 14 -35 30 -32 20 3 21 9 20 108 -1 58 -2 108 -2
111 0 4 -160 7 -356 7 l-355 0 3 -21z"/>
<path d="M11778 5262 l-148 -3 0 -184 0 -184 513 -2 c281 0 521 0 532 1 26 2
-13 2 530 0 l480 -2 3 186 2 186 -537 0 c-296 0 -693 1 -883 3 -190 1 -411 1
-492 -1z m168 -115 c9 -27 17 -33 50 -37 l39 -5 -32 -23 c-29 -21 -31 -25 -21
-53 14 -40 3 -48 -27 -19 l-24 23 -37 -28 -37 -28 6 24 c4 13 10 33 13 44 4
15 -3 25 -28 40 l-33 20 42 3 c40 3 43 6 54 43 13 43 19 43 35 -4z m594 33 c0
-5 -2 -10 -4 -10 -3 0 -8 5 -11 10 -3 6 -1 10 4 10 6 0 11 -4 11 -10z m193
-70 l41 0 -34 -29 c-32 -26 -34 -30 -22 -55 7 -15 12 -29 12 -31 0 -11 -18 -4
-40 15 -23 20 -31 19 -63 -8 -23 -20 -30 -11 -17 22 12 33 8 42 -34 67 l-31
19 46 0 c45 0 46 1 59 43 l13 42 14 -42 c14 -41 16 -43 56 -43z m682 37 c9
-28 15 -32 50 -35 l40 -4 -34 -27 c-33 -27 -33 -27 -17 -59 14 -27 14 -32 2
-32 -8 0 -18 4 -21 10 -16 26 -43 29 -69 9 -33 -26 -40 -21 -26 17 10 26 8 31
-19 56 -17 15 -31 30 -31 32 0 2 17 2 38 -1 37 -5 38 -4 52 36 15 45 19 45 35
-2z m-1051 -107 l41 -1 -34 -29 c-31 -27 -33 -30 -22 -61 14 -41 10 -44 -23
-18 -28 22 -35 21 -75 -8 -26 -19 -26 -23 -6 44 4 16 -2 26 -27 45 l-33 23 44
5 c41 5 46 8 54 40 l9 35 15 -37 c14 -35 18 -38 57 -38z m681 30 c6 -26 10
-29 53 -32 l47 -3 -38 -24 c-25 -15 -36 -28 -33 -38 4 -8 9 -27 12 -41 l7 -27
-25 23 c-30 28 -46 28 -75 0 -29 -27 -36 -20 -21 22 10 31 9 35 -15 56 -15 13
-27 26 -27 29 0 3 18 5 40 5 37 0 39 2 46 35 7 40 20 38 29 -5z m-1335 0 c0
-5 -4 -10 -10 -10 -5 0 -10 5 -10 10 0 6 5 10 10 10 6 0 10 -4 10 -10z m827
-157 c-3 -10 -5 -4 -5 12 0 17 2 24 5 18 2 -7 2 -21 0 -30z"/>
<path d="M4610 4433 c-19 -2 -66 -10 -105 -19 -370 -80 -659 -293 -812 -597
-92 -185 -130 -349 -131 -572 -1 -201 28 -335 111 -502 58 -117 111 -194 181
-263 44 -42 58 -52 68 -42 21 21 31 13 25 -18 -6 -28 -2 -33 66 -81 81 -57
217 -128 292 -152 349 -113 713 -91 1018 59 124 61 199 115 293 210 161 163
265 362 308 593 18 95 21 308 6 416 -25 175 -104 375 -204 513 -60 84 -218
242 -242 242 -7 0 -14 3 -16 8 -6 14 -143 91 -218 122 -138 57 -310 88 -485
87 -66 0 -136 -2 -155 -4z m120 -63 c0 -5 -4 -10 -10 -10 -5 0 -10 5 -10 10 0
6 5 10 10 10 6 0 10 -4 10 -10z m210 -105 c119 -43 236 -137 321 -255 18 -25
36 -48 41 -51 6 -3 10 -10 10 -15 -1 -5 17 -45 38 -89 49 -105 65 -153 89
-272 35 -168 43 -243 42 -388 -2 -253 -32 -406 -111 -570 -75 -154 -159 -243
-295 -310 -129 -63 -273 -79 -425 -46 -134 28 -226 78 -330 178 -55 53 -70 62
-70 43 0 -5 -4 -10 -10 -10 -6 0 -5 10 2 25 10 21 8 29 -10 48 -27 29 -114
211 -146 307 -23 70 -45 184 -61 325 -18 149 -3 391 32 535 33 133 137 331
204 387 16 14 27 29 23 34 -3 5 0 17 5 26 10 17 10 17 11 1 0 -15 8 -12 48 16
116 84 237 117 402 112 94 -3 129 -9 190 -31z m395 -75 c3 -5 1 -10 -4 -10 -6
0 -11 5 -11 10 0 6 2 10 4 10 3 0 8 -4 11 -10z m240 -200 c-3 -5 -12 -10 -20
-10 -8 0 -17 5 -20 10 -4 6 5 10 20 10 15 0 24 -4 20 -10z m-65 -100 c0 -5 -2
-10 -4 -10 -3 0 -8 5 -11 10 -3 6 -1 10 4 10 6 0 11 -4 11 -10z m30 -9 c0 -12
-50 -44 -57 -37 -6 6 37 45 50 46 4 0 7 -4 7 -9z m116 -35 c20 -21 17 -28 -6
-14 -11 7 -20 16 -20 20 0 12 10 9 26 -6z m-169 -48 c-3 -8 -6 -5 -6 6 -1 11
2 17 5 13 3 -3 4 -12 1 -19z m93 -223 c-7 -9 -15 -13 -17 -11 -6 6 20 36 26
30 2 -2 -2 -10 -9 -19z m160 -35 c0 -5 -2 -10 -4 -10 -3 0 -8 5 -11 10 -3 6
-1 10 4 10 6 0 11 -4 11 -10z m-182 -81 c-3 -8 -7 -3 -11 10 -4 17 -3 21 5 13
5 -5 8 -16 6 -23z m122 -79 c0 -5 -5 -10 -11 -10 -5 0 -7 5 -4 10 3 6 8 10 11
10 2 0 4 -4 4 -10z m-125 -60 c3 -5 -1 -10 -10 -10 -9 0 -13 5 -10 10 3 6 8
10 10 10 2 0 7 -4 10 -10z m-1520 -420 c3 -5 1 -10 -4 -10 -6 0 -11 5 -11 10
0 6 2 10 4 10 3 0 8 -4 11 -10z m35 -290 c0 -5 -4 -10 -10 -10 -5 0 -10 5 -10
10 0 6 5 10 10 10 6 0 10 -4 10 -10z m-182 -44 c2 -9 1 -25 -3 -34 -6 -14 -10
-12 -20 13 -7 17 -11 34 -8 38 8 13 28 2 31 -17z m185 -50 c6 -16 -2 -28 -14
-20 -12 7 -11 34 0 34 5 0 11 -6 14 -14z m-73 -26 c0 -5 -2 -10 -4 -10 -3 0
-8 5 -11 10 -3 6 -1 10 4 10 6 0 11 -4 11 -10z m80 -41 c0 -6 -4 -7 -10 -4 -5
3 -10 11 -10 16 0 6 5 7 10 4 6 -3 10 -11 10 -16z m159 -44 c-6 -22 -13 -46
-15 -53 -2 -7 -8 -11 -13 -7 -6 3 -4 21 4 46 8 22 14 43 14 47 -3 19 2 25 11
16 6 -6 6 -23 -1 -49z m-38 -108 c-8 -8 -11 -7 -11 4 0 20 13 34 18 19 3 -7
-1 -17 -7 -23z"/>
<path d="M9990 4433 c-374 -25 -660 -174 -890 -462 -51 -64 -134 -223 -165
-316 -59 -178 -80 -427 -51 -600 19 -111 26 -140 63 -235 61 -157 171 -313
296 -417 31 -26 42 -31 50 -21 7 10 8 9 4 -3 -6 -20 57 -69 157 -123 87 -48
150 -70 154 -56 2 5 8 10 14 10 6 0 8 -6 5 -14 -7 -16 28 -27 182 -57 152 -28
415 -24 558 9 450 105 774 439 860 885 16 84 24 321 14 397 -35 261 -117 454
-262 624 -55 64 -171 163 -182 155 -4 -2 -14 6 -23 19 -15 23 -111 76 -214
120 -129 55 -423 108 -465 85 -10 -6 -30 -8 -44 -4 -14 3 -42 5 -61 4z m50
-23 c0 -5 -5 -10 -11 -10 -5 0 -7 5 -4 10 3 6 8 10 11 10 2 0 4 -4 4 -10z
m117 -46 c-3 -3 -12 -4 -19 -1 -8 3 -5 6 6 6 11 1 17 -2 13 -5z m143 -34 c0
-5 -7 -10 -15 -10 -9 0 -20 -10 -25 -22 -5 -13 -9 -21 -10 -18 -10 36 -8 49 5
44 8 -4 15 -1 15 5 0 6 7 11 15 11 8 0 15 -4 15 -10z m-445 -10 c3 -5 1 -10
-4 -10 -6 0 -11 5 -11 10 0 6 2 10 4 10 3 0 8 -4 11 -10z m321 -36 c275 -57
505 -342 578 -714 53 -271 49 -558 -10 -785 -23 -88 -69 -188 -125 -270 -171
-253 -522 -336 -821 -195 -67 31 -189 139 -242 213 -105 147 -191 374 -212
557 -47 421 14 743 185 967 148 194 392 280 647 227z m474 -74 c0 -5 -4 -10
-10 -10 -5 0 -10 5 -10 10 0 6 5 10 10 10 6 0 10 -4 10 -10z m330 -300 c8 -5
11 -12 8 -16 -4 -3 -14 1 -23 10 -18 17 -9 21 15 6z m-35 -20 c-3 -5 -11 -10
-16 -10 -6 0 -7 5 -4 10 3 6 11 10 16 10 6 0 7 -4 4 -10z m-55 -30 c0 -5 -4
-10 -10 -10 -5 0 -10 5 -10 10 0 6 5 10 10 10 6 0 10 -4 10 -10z m80 1 c0 -12
-30 -22 -43 -14 -7 4 -3 9 9 14 26 10 34 10 34 0z m-145 -61 c3 -5 1 -10 -4
-10 -6 0 -11 5 -11 10 0 6 2 10 4 10 3 0 8 -4 11 -10z m160 -57 c15 -21 8 -51
-15 -63 -17 -9 -17 -8 -3 20 12 24 12 34 3 45 -7 8 -9 15 -5 15 4 0 13 -8 20
-17z m85 -27 c0 -3 -4 -8 -10 -11 -5 -3 -10 -1 -10 4 0 6 5 11 10 11 6 0 10
-2 10 -4z m70 -6 c0 -5 -4 -10 -10 -10 -5 0 -10 5 -10 10 0 6 5 10 10 10 6 0
10 -4 10 -10z m-70 -40 c11 -7 7 -10 -18 -10 -20 0 -31 4 -27 10 8 13 26 13
45 0z m-110 -30 c0 -5 -5 -10 -11 -10 -5 0 -7 5 -4 10 3 6 8 10 11 10 2 0 4
-4 4 -10z m163 -50 c-3 -11 -9 -20 -14 -20 -11 0 -11 3 -3 24 9 23 23 20 17
-4z m85 -162 c-6 -17 -36 -34 -44 -25 -4 4 1 14 12 22 23 18 37 19 32 3z
m-2063 -228 c3 -5 1 -10 -4 -10 -6 0 -11 5 -11 10 0 6 2 10 4 10 3 0 8 -4 11
-10z m-5 -24 c0 -3 -4 -8 -10 -11 -5 -3 -10 -1 -10 4 0 6 5 11 10 11 6 0 10
-2 10 -4z m-20 -97 c0 -6 -4 -7 -10 -4 -5 3 -10 11 -10 16 0 6 5 7 10 4 6 -3
10 -11 10 -16z m-15 -218 c10 -17 -9 -20 -30 -5 -18 14 -18 14 2 14 12 0 24
-4 28 -9z m-10 -51 c3 -5 1 -10 -4 -10 -6 0 -11 5 -11 10 0 6 2 10 4 10 3 0 8
-4 11 -10z m-56 -41 c-4 -9 -5 -19 -2 -23 3 -3 1 -6 -5 -6 -7 0 -12 7 -12 15
0 8 -4 15 -10 15 -5 0 -10 4 -10 9 0 5 11 8 24 7 19 -1 22 -4 15 -17z m236
-99 c-3 -5 -10 -10 -16 -10 -5 0 -9 5 -9 10 0 6 7 10 16 10 8 0 12 -4 9 -10z
m198 -155 c-3 -9 -8 -14 -10 -11 -3 3 -2 9 2 15 9 16 15 13 8 -4z m-132 -39
c5 3 9 0 9 -5 0 -6 -7 -11 -15 -11 -8 0 -15 8 -14 18 0 10 3 12 6 4 2 -6 9
-10 14 -6z m1440 -29 c-15 -15 -21 -5 -14 22 5 21 7 21 16 6 6 -11 5 -21 -2
-28z m-1431 -7 c0 -5 -4 -10 -10 -10 -5 0 -10 5 -10 10 0 6 5 10 10 10 6 0 10
-4 10 -10z m295 -110 c-3 -5 -12 -10 -18 -10 -7 0 -6 4 3 10 19 12 23 12 15 0z
m335 -110 c0 -5 -2 -10 -4 -10 -3 0 -8 5 -11 10 -3 6 -1 10 4 10 6 0 11 -4 11
-10z m180 -35 c0 -8 -4 -15 -10 -15 -5 0 -10 7 -10 15 0 8 5 15 10 15 6 0 10
-7 10 -15z"/>
<path d="M820 4386 c-6 -6 -10 -27 -10 -48 0 -42 -5 -39 110 -59 116 -19 142
-46 160 -161 5 -36 8 -401 7 -845 -2 -624 1 -779 11 -771 8 7 12 7 12 0 0 -6
-6 -15 -14 -19 -8 -5 -15 -27 -17 -53 -1 -25 -12 -64 -24 -87 -19 -35 -20 -43
-8 -47 8 -3 11 -10 8 -16 -4 -6 1 -7 11 -3 13 5 16 3 11 -10 -5 -12 -1 -17 12
-17 11 0 22 -6 24 -12 4 -10 6 -10 6 0 1 6 6 12 11 12 14 0 13 -43 -2 -58 -9
-9 -8 -12 6 -12 9 0 14 5 11 10 -3 6 0 10 9 10 8 0 16 6 19 13 2 6 8 8 13 4 5
-5 1 -14 -9 -22 -27 -20 -10 -22 193 -23 102 0 228 -4 280 -7 52 -3 101 -2
108 3 8 6 12 24 10 48 l-3 38 -106 21 c-59 11 -114 27 -124 35 -23 19 -44 63
-51 107 -8 53 -13 578 -7 696 5 88 8 100 29 113 19 13 99 15 542 15 304 0 530
-4 544 -10 18 -7 27 -19 31 -43 7 -51 1 -706 -8 -763 -10 -61 -31 -115 -46
-115 -6 0 -8 -7 -5 -16 3 -8 2 -12 -4 -9 -5 3 -52 -2 -104 -11 l-94 -17 -7
-34 c-10 -55 6 -66 90 -59 96 8 631 8 721 0 40 -4 84 -4 98 0 23 6 26 11 26
49 l0 43 -94 18 c-126 24 -144 38 -164 131 -12 57 -14 1645 -2 1715 20 117 40
140 135 155 22 3 57 11 78 16 37 10 38 11 35 52 l-3 42 -425 1 c-234 1 -435 4
-447 8 -13 4 -27 1 -37 -9 -18 -18 -22 -70 -6 -80 6 -4 52 -15 102 -25 110
-23 133 -41 148 -120 14 -70 22 -652 10 -704 -4 -21 -14 -44 -20 -50 -8 -8
-161 -12 -531 -14 -576 -2 -588 -1 -590 55 -5 140 4 670 12 711 16 80 39 99
139 119 47 9 90 20 96 24 7 5 8 24 5 46 l-6 38 -333 0 -332 0 0 -35 c-1 -19
-7 -48 -15 -65 l-13 -30 -3 40 c-1 22 -3 51 -3 65 -1 28 0 27 -119 32 -43 2
-82 -1 -87 -6z m400 -416 c0 -5 -2 -10 -4 -10 -3 0 -8 5 -11 10 -3 6 -1 10 4
10 6 0 11 -4 11 -10z m71 -473 c-8 -8 -11 -7 -11 4 0 20 13 34 18 19 3 -7 -1
-17 -7 -23z m-71 -27 c0 -5 -4 -10 -10 -10 -5 0 -10 5 -10 10 0 6 5 10 10 10
6 0 10 -4 10 -10z m40 0 c0 -5 -5 -10 -11 -10 -5 0 -7 5 -4 10 3 6 8 10 11 10
2 0 4 -4 4 -10z m-78 -17 c-7 -3 -19 -17 -26 -32 -12 -22 -12 -31 0 -60 17
-40 18 -71 3 -71 -6 0 -9 6 -6 13 2 6 -2 19 -10 28 -19 23 -19 47 0 92 10 24
22 37 34 36 11 0 13 -3 5 -6z m31 -262 c19 -60 22 -101 7 -101 -5 0 -12 12
-16 28 -3 15 -9 38 -14 52 -5 14 -11 43 -15 65 -6 35 -5 38 8 25 7 -8 21 -39
30 -69z m23 -143 c1 -13 5 -33 9 -45 4 -14 3 -23 -3 -23 -11 0 -22 33 -22 68
0 12 3 22 8 22 4 0 8 -10 8 -22z m84 -149 c0 -5 -4 -9 -10 -9 -5 0 -10 9 -10
20 0 11 -4 20 -9 20 -5 0 -12 8 -15 18 -4 10 4 6 19 -11 14 -15 25 -32 25 -38z
m70 -69 c7 0 5 -7 -5 -16 -18 -18 -18 -18 -34 13 -18 34 -13 51 8 26 11 -13
24 -23 31 -23z m35 -10 c3 -5 1 -10 -4 -10 -6 0 -11 5 -11 10 0 6 2 10 4 10 3
0 8 -4 11 -10z m-40 -170 c3 -5 1 -10 -4 -10 -6 0 -11 5 -11 10 0 6 2 10 4 10
3 0 8 -4 11 -10z m-45 -51 c0 -5 -4 -9 -10 -9 -5 0 -10 7 -10 16 0 8 5 12 10
9 6 -3 10 -10 10 -16z m30 -19 c0 -5 -2 -10 -4 -10 -3 0 -8 5 -11 10 -3 6 -1
10 4 10 6 0 11 -4 11 -10z m-225 -60 c3 -5 1 -10 -4 -10 -6 0 -11 5 -11 10 0
6 2 10 4 10 3 0 8 -4 11 -10z m79 -46 c8 -20 1 -29 -13 -19 -6 3 -8 11 -5 17
4 6 2 8 -4 4 -6 -3 -13 -2 -17 4 -3 5 3 10 13 10 11 0 23 -7 26 -16z m50 -10
c4 -11 2 -12 -14 -1 -11 6 -20 15 -20 19 0 12 28 -3 34 -18z m-44 -34 c12 -8
11 -10 -7 -10 -13 0 -23 5 -23 10 0 13 11 13 30 0z m80 -51 c0 -6 -4 -7 -10
-4 -5 3 -10 11 -10 16 0 6 5 7 10 4 6 -3 10 -11 10 -16z m95 11 c3 -5 -1 -10
-10 -10 -9 0 -13 5 -10 10 3 6 8 10 10 10 2 0 7 -4 10 -10z m-295 -10 c0 -5
-2 -10 -4 -10 -3 0 -8 5 -11 10 -3 6 -1 10 4 10 6 0 11 -4 11 -10z m0 -30 c0
-5 -5 -10 -11 -10 -5 0 -7 5 -4 10 3 6 8 10 11 10 2 0 4 -4 4 -10z m25 0 c3
-5 1 -10 -4 -10 -6 0 -11 5 -11 10 0 6 2 10 4 10 3 0 8 -4 11 -10z m345 -10
c0 -5 -2 -10 -4 -10 -3 0 -8 5 -11 10 -3 6 -1 10 4 10 6 0 11 -4 11 -10z
m-214 -48 c-4 -3 -13 3 -21 14 -22 28 -18 37 6 13 11 -11 18 -23 15 -27z m-31
-52 c3 -5 1 -10 -4 -10 -6 0 -11 5 -11 10 0 6 2 10 4 10 3 0 8 -4 11 -10z
m225 -19 c0 -5 -10 -11 -22 -14 -22 -6 -22 -6 -4 8 23 17 26 18 26 6z m-108
-33 c-7 -7 -12 -8 -12 -2 0 6 3 14 7 17 3 4 9 5 12 2 2 -3 -1 -11 -7 -17z"/>
<path d="M6145 4379 c-15 -23 -13 -58 3 -72 10 -9 55 -25 101 -36 102 -25 170
-71 201 -136 37 -77 42 -202 37 -934 -7 -892 -5 -885 -150 -918 -126 -29 -122
-27 -125 -56 -7 -59 -20 -57 386 -59 249 -1 376 2 383 9 6 6 9 25 7 43 l-3 33
-96 21 c-106 24 -141 42 -163 85 -23 43 -44 154 -51 266 -7 108 -8 1235 -1
1242 10 11 54 -34 234 -241 106 -122 205 -235 220 -251 25 -27 115 -129 277
-315 177 -203 321 -360 330 -360 6 0 16 -12 23 -27 6 -16 29 -46 49 -68 21
-22 71 -79 112 -125 41 -47 96 -106 122 -132 26 -27 45 -48 42 -48 -3 0 0 -7
7 -15 7 -9 21 -13 31 -10 21 7 27 -11 7 -18 -9 -3 -3 -15 16 -36 33 -35 48
-38 70 -15 9 8 20 12 26 9 13 -8 -9 -31 -33 -36 -15 -3 -13 -10 13 -41 36 -44
54 -47 101 -15 l33 22 -3 90 c-2 50 -5 108 -7 130 -3 22 -4 76 -4 120 6 576 4
743 -9 758 -11 14 -11 17 0 17 12 0 14 42 13 233 -1 289 11 542 31 638 19 93
47 122 132 139 32 6 73 16 91 22 31 9 33 12 30 51 l-3 42 -385 2 c-283 1 -387
-2 -392 -10 -12 -19 -9 -64 5 -74 6 -5 44 -15 82 -22 108 -19 150 -43 180
-104 13 -29 27 -72 30 -97 3 -25 8 -63 11 -85 10 -70 17 -1185 7 -1185 -13 0
-34 21 -133 130 -118 130 -151 161 -163 153 -6 -3 -7 -1 -3 6 4 6 -4 26 -19
44 -24 28 -163 182 -205 227 -8 9 -55 61 -105 116 -49 54 -95 104 -101 109
-46 41 -357 398 -414 475 -14 19 -39 50 -55 70 -56 64 -135 177 -150 214 l-16
37 -118 -2 c-144 -1 -174 -6 -166 -27 7 -19 -13 -42 -31 -35 -18 7 -18 18 1
36 12 13 12 15 -5 20 -11 3 -23 1 -26 -4 -3 -5 -9 -7 -14 -4 -5 3 -72 8 -149
11 -104 4 -141 3 -146 -7z m275 -29 c0 -5 -4 -10 -10 -10 -5 0 -10 5 -10 10 0
6 5 10 10 10 6 0 10 -4 10 -10z m20 -25 c-7 -9 -15 -13 -17 -11 -7 7 7 26 19
26 6 0 6 -6 -2 -15z m35 -45 c3 -5 1 -10 -4 -10 -6 0 -11 5 -11 10 0 6 2 10 4
10 3 0 8 -4 11 -10z m545 -404 c0 -3 -4 -8 -10 -11 -5 -3 -10 -1 -10 4 0 6 5
11 10 11 6 0 10 -2 10 -4z m1260 -596 c0 -5 -5 -10 -11 -10 -5 0 -7 5 -4 10 3
6 8 10 11 10 2 0 4 -4 4 -10z m-432 -276 c3 -16 1 -16 -7 -4 -9 13 -11 13 -11
-1 0 -12 -9 -16 -37 -14 -51 3 -53 4 -53 15 0 14 27 13 32 -1 2 -6 14 -2 28
10 29 24 44 22 48 -5z m-66 -56 c-7 -7 -12 -8 -12 -2 0 14 12 26 19 19 2 -3
-1 -11 -7 -17z m83 -27 c-3 -6 -12 -11 -20 -11 -8 0 -18 -8 -24 -17 -5 -10
-13 -15 -17 -11 -9 10 15 38 41 48 23 9 30 6 20 -9z m-94 -18 c-12 -20 -14
-14 -5 12 4 9 9 14 11 11 3 -2 0 -13 -6 -23z m239 7 c0 -5 -5 -10 -11 -10 -5
0 -7 5 -4 10 3 6 8 10 11 10 2 0 4 -4 4 -10z m140 -160 c0 -5 -4 -10 -10 -10
-5 0 -10 5 -10 10 0 6 5 10 10 10 6 0 10 -4 10 -10z m135 -11 c11 -17 -1 -21
-15 -4 -8 9 -8 15 -2 15 6 0 14 -5 17 -11z m-168 -151 c-3 -8 -6 -5 -6 6 -1
11 2 17 5 13 3 -3 4 -12 1 -19z m93 -169 c0 -5 -4 -9 -10 -9 -5 0 -10 7 -10
16 0 8 5 12 10 9 6 -3 10 -10 10 -16z m-165 -7 c-3 -3 -11 0 -18 7 -9 10 -8
11 6 5 10 -3 15 -9 12 -12z m65 -26 c0 -3 -4 -8 -10 -11 -5 -3 -10 -1 -10 4 0
6 5 11 10 11 6 0 10 -2 10 -4z m110 -56 c0 -5 -6 -10 -14 -10 -8 0 -18 5 -21
10 -3 6 3 10 14 10 12 0 21 -4 21 -10z m10 -54 c0 -8 -4 -18 -10 -21 -5 -3
-10 3 -10 14 0 12 5 21 10 21 6 0 10 -6 10 -14z m64 -61 c-4 -8 -10 -13 -15
-10 -4 3 -6 12 -3 20 4 8 10 13 15 10 4 -3 6 -12 3 -20z"/>
<path d="M11869 4386 c-2 -2 -66 -7 -142 -10 -171 -9 -187 -14 -187 -60 0 -39
2 -40 130 -66 30 -6 65 -18 76 -28 49 -39 48 -38 54 -852 5 -780 1 -944 -25
-1015 -20 -53 -51 -70 -156 -85 -85 -11 -87 -13 -93 -41 -3 -17 -1 -38 5 -47
10 -16 46 -17 466 -16 500 2 478 -1 471 61 -3 24 -9 27 -93 44 -112 23 -130
31 -149 66 -28 55 -35 141 -36 460 0 281 1 323 15 337 12 12 36 16 91 16 82 0
129 -15 163 -51 22 -24 111 -169 161 -264 72 -136 234 -375 312 -461 49 -53
162 -144 180 -144 11 0 7 73 -5 88 -5 7 -7 15 -4 19 4 3 1 15 -5 27 -18 34
-17 79 3 105 20 25 25 66 9 76 -5 3 -7 12 -3 21 3 8 -1 20 -9 27 -12 10 -12
18 -2 47 14 38 15 38 19 0 2 -14 5 -32 8 -40 17 -63 18 -91 3 -121 -22 -43
-20 -97 4 -153 19 -42 20 -48 5 -75 -15 -30 -15 -31 14 -45 52 -27 175 -56
260 -61 78 -5 241 8 276 21 18 7 18 70 0 68 -18 -2 -109 28 -155 51 -89 45
-259 238 -345 390 -15 28 -57 95 -92 150 -93 146 -243 398 -243 410 0 6 26 23
58 39 169 86 300 229 338 368 15 56 20 213 8 275 -16 86 -90 209 -165 277 -54
49 -207 128 -279 146 -172 42 -169 42 -556 46 -210 2 -383 2 -385 0z m21 -90
c0 -3 -4 -8 -10 -11 -5 -3 -10 -1 -10 4 0 6 5 11 10 11 6 0 10 -2 10 -4z m40
-26 c0 -5 -4 -10 -10 -10 -5 0 -10 5 -10 10 0 6 5 10 10 10 6 0 10 -4 10 -10z
m50 -20 c0 -5 -2 -10 -4 -10 -3 0 -8 5 -11 10 -3 6 -1 10 4 10 6 0 11 -4 11
-10z m540 -18 c128 -50 209 -125 267 -247 33 -70 36 -85 41 -190 12 -284 -84
-440 -303 -490 -66 -16 -276 -22 -307 -10 -10 4 -20 21 -23 38 -3 18 -5 219
-3 447 3 464 3 464 70 473 63 9 212 -3 258 -21z m-535 -12 c3 -5 1 -10 -4 -10
-6 0 -11 5 -11 10 0 6 2 10 4 10 3 0 8 -4 11 -10z m760 -20 c3 -5 1 -10 -4
-10 -6 0 -11 5 -11 10 0 6 2 10 4 10 3 0 8 -4 11 -10z m-785 -70 c0 -5 -2 -10
-4 -10 -3 0 -8 5 -11 10 -3 6 -1 10 4 10 6 0 11 -4 11 -10z m40 -40 c0 -5 -4
-10 -10 -10 -5 0 -10 5 -10 10 0 6 5 10 10 10 6 0 10 -4 10 -10z m1090 -40 c0
-5 -2 -10 -4 -10 -3 0 -8 5 -11 10 -3 6 -1 10 4 10 6 0 11 -4 11 -10z m-1230
-781 c0 -6 -4 -7 -10 -4 -5 3 -10 11 -10 16 0 6 5 7 10 4 6 -3 10 -11 10 -16z
m57 -971 c-3 -8 -6 -5 -6 6 -1 11 2 17 5 13 3 -3 4 -12 1 -19z"/>
<path d="M335 3720 c-32 -13 -59 -23 -75 -26 -8 -2 -20 -11 -27 -21 -24 -36
-59 -64 -84 -69 -24 -5 -26 -10 -25 -57 0 -29 5 -56 11 -60 7 -6 6 -10 -3 -14
-17 -7 -17 -473 1 -473 8 0 8 -3 -1 -9 -10 -6 -13 -41 -11 -146 l2 -137 31
-15 c17 -7 46 -25 64 -38 18 -13 40 -21 48 -18 8 3 14 2 13 -3 -1 -5 1 -16 5
-24 26 -60 59 -162 63 -197 3 -24 8 -43 12 -43 5 0 5 713 0 730 -1 3 -1 8 0
12 5 39 9 618 3 617 -4 0 -16 -4 -27 -9z m-125 -160 c0 -5 -5 -10 -11 -10 -5
0 -7 5 -4 10 3 6 8 10 11 10 2 0 4 -4 4 -10z m50 -166 c0 -2 -7 -4 -15 -4 -8
0 -15 4 -15 10 0 5 7 7 15 4 8 -4 15 -8 15 -10z m-90 -112 c0 -13 -12 -22 -22
-16 -10 6 -1 24 13 24 5 0 9 -4 9 -8z m165 -282 c3 -5 1 -10 -4 -10 -6 0 -11
5 -11 10 0 6 2 10 4 10 3 0 8 -4 11 -10z m-157 -22 c-2 -13 -9 -23 -15 -23 -7
0 -12 5 -10 10 1 6 5 9 9 8 4 -2 5 4 2 12 -4 8 -1 15 6 15 6 0 10 -10 8 -22z
m17 -58 c10 -11 13 -20 7 -20 -6 0 -16 9 -22 20 -6 11 -9 20 -7 20 2 0 12 -9
22 -20z m26 -127 c-8 -15 -10 -15 -11 -2 0 17 10 32 18 25 2 -3 -1 -13 -7 -23z
m49 -123 c0 -5 -4 -10 -10 -10 -5 0 -10 5 -10 10 0 6 5 10 10 10 6 0 10 -4 10
-10z"/>
<path d="M119 2601 c0 -31 -2 -75 -3 -99 -2 -26 3 -47 11 -53 7 -6 13 -17 13
-23 0 -6 -5 -4 -10 4 -6 10 -9 -146 -7 -440 l2 -455 191 -5 c105 -3 198 -4
206 -2 19 4 32 84 20 124 -4 14 -27 48 -51 75 -36 39 -52 49 -85 53 l-41 5 0
250 c0 225 -2 255 -19 293 -10 23 -23 42 -28 42 -4 0 -8 16 -8 35 0 20 -8 50
-17 68 -9 18 -18 39 -19 47 -16 95 -32 113 -116 130 l-38 7 -1 -56z m181 -366
c0 -8 -2 -15 -4 -15 -2 0 -6 7 -10 15 -3 8 -1 15 4 15 6 0 10 -7 10 -15z"/>
<path d="M14182 2626 c4 -4 3 -19 -2 -32 -6 -15 -6 -24 0 -24 6 0 10 6 10 14
0 8 5 16 11 18 7 2 3 10 -7 18 -11 8 -16 11 -12 6z"/>
<path d="M14155 2610 c-3 -5 -1 -10 4 -10 6 0 11 5 11 10 0 6 -2 10 -4 10 -3
0 -8 -4 -11 -10z"/>
<path d="M14200 2574 c0 -9 -10 -24 -22 -34 l-23 -18 23 -20 23 -21 -20 -20
c-12 -12 -18 -21 -14 -21 4 0 2 -5 -4 -11 -13 -13 -6 -39 9 -39 5 0 7 4 4 9
-3 5 1 14 9 21 8 7 15 23 15 35 0 25 26 53 32 35 2 -6 10 -12 18 -14 38 -7 70
-19 70 -25 0 -4 -5 -12 -12 -19 -9 -9 -9 -12 0 -12 7 0 12 5 12 11 0 6 7 9 15
6 18 -8 27 6 19 28 -4 9 -13 14 -21 11 -20 -8 -44 19 -37 39 5 13 2 15 -21 9
-24 -6 -27 -4 -22 10 5 11 1 16 -13 16 -11 0 -19 3 -19 8 3 18 -2 32 -11 32
-5 0 -10 -7 -10 -16z"/>
<path d="M14365 2530 c-25 -27 -12 -37 14 -11 11 11 17 23 12 25 -5 3 -16 -3
-26 -14z"/>
<path d="M14162 2329 c0 -19 -2 -39 -4 -45 -2 -5 2 -10 7 -10 6 -1 9 3 7 10
-3 8 0 8 9 -1 9 -9 16 -6 32 13 22 28 21 29 -13 44 -22 9 -22 10 -3 6 12 -2
28 3 34 10 10 12 6 14 -28 12 -39 -3 -41 -4 -41 -39z"/>
<path d="M14255 2280 c-3 -10 -1 -28 4 -39 8 -13 8 -28 1 -45 -13 -36 -23 -32
-15 7 4 23 3 28 -4 17 -8 -12 -12 -13 -23 -2 -11 11 -10 15 6 24 14 8 15 12 5
18 -15 10 -39 -30 -39 -66 0 -12 -4 -26 -10 -29 -5 -3 -10 -1 -10 6 0 7 -3 9
-7 5 -11 -10 -12 -76 -3 -76 4 0 4 -15 0 -34 -7 -32 -4 -195 4 -203 4 -5 159
67 166 77 3 3 20 13 38 21 34 15 39 28 21 61 -8 15 -8 22 1 28 10 6 10 15 1
40 -6 18 -9 36 -6 40 3 4 -2 13 -10 20 -13 11 -15 8 -16 -16 -1 -16 -2 -33 -4
-39 -1 -5 -3 -16 -3 -22 -1 -7 -5 -13 -9 -13 -5 0 -9 25 -10 55 -2 43 1 59 16
74 17 17 17 18 -18 17 -32 -1 -36 2 -39 27 -2 19 1 27 12 27 24 0 19 15 -9 28
-33 15 -33 15 -40 -8z m51 -182 c1 -24 -1 -36 -4 -28 -3 8 -9 17 -13 20 -9 6
0 50 10 50 3 0 7 -19 7 -42z m-62 -42 c-3 -9 -10 -16 -15 -16 -5 0 -4 9 3 20
14 22 21 20 12 -4z"/>
<path d="M940 2275 c-30 -7 -57 -14 -60 -15 -3 -1 -12 -2 -21 -1 -30 3 -32
-82 -2 -93 19 -8 69 17 66 32 -4 14 7 15 27 2 13 -9 13 -11 0 -20 -10 -7 12
-9 73 -8 83 1 87 2 87 24 0 13 -5 26 -11 29 -17 11 -23 -3 -9 -20 8 -10 9 -15
1 -15 -6 0 -13 11 -17 24 -3 14 -12 27 -19 30 -10 3 -12 0 -8 -11 4 -11 2 -14
-8 -11 -8 3 -14 18 -14 34 -1 34 -10 36 -85 19z m51 -58 c-13 -13 -26 -3 -16
12 3 6 11 8 17 5 6 -4 6 -10 -1 -17z"/>
<path d="M14330 2280 c0 -5 5 -10 11 -10 5 0 7 5 4 10 -3 6 -8 10 -11 10 -2 0
-4 -4 -4 -10z"/>
<path d="M14160 2229 c0 -18 2 -19 15 -9 8 7 15 16 15 21 0 5 -7 9 -15 9 -9 0
-15 -9 -15 -21z"/>
<path d="M14318 1912 c-25 -15 -54 -35 -65 -44 -10 -9 -36 -18 -58 -20 -32 -2
-40 -7 -41 -23 -1 -11 -2 -25 -3 -32 0 -6 -22 -15 -48 -19 -51 -7 -79 -18
-101 -41 -7 -7 -26 -13 -41 -13 -17 0 -39 -10 -54 -26 l-27 -26 -100 12 c-97
12 -102 12 -123 -8 -19 -18 -68 -44 -89 -46 -3 -1 -15 -12 -26 -26 -18 -24
-24 -42 -40 -140 -5 -25 -14 -56 -22 -70 -8 -14 -13 -29 -12 -34 2 -5 -3 -6
-11 -3 -8 3 -30 -10 -50 -28 -20 -18 -45 -36 -54 -39 -34 -11 -40 -84 -38
-431 1 -181 0 -340 -3 -353 -2 -13 -11 -22 -23 -22 -10 0 -19 -6 -19 -12 0
-10 -2 -10 -8 -1 -10 16 -71 10 -84 -8 -7 -11 -11 -11 -15 -2 -6 15 -25 -1
-36 -30 -4 -10 -12 -15 -17 -12 -7 4 -8 11 -1 18 6 8 5 18 -3 29 -10 13 -28
17 -84 17 -40 0 -70 -4 -68 -8 3 -4 1 -13 -4 -20 -6 -10 -9 -8 -15 8 l-6 21
-746 0 -745 0 4 -114 c1 -63 7 -118 11 -123 7 -7 1806 -11 1892 -4 17 1 72 0
123 -3 l92 -5 2 147 c2 81 2 176 1 212 -1 36 -2 76 -2 90 1 14 1 206 2 427 1
220 6 405 10 409 4 4 168 9 364 11 324 3 357 5 369 21 7 9 16 14 20 9 4 -4 2
-7 -4 -7 -29 0 -9 -16 22 -18 38 -3 47 11 52 76 1 24 -2 32 -15 32 -15 1 -15
2 1 13 13 11 16 33 17 120 1 59 2 110 2 115 9 57 -13 64 -83 24z m-21 -143 c2
-16 1 -18 -11 -7 -7 7 -11 19 -9 26 7 16 16 8 20 -19z m61 -155 c-2 -41 -18
-46 -18 -5 0 16 -6 31 -15 35 -8 3 -12 12 -9 21 11 28 44 -12 42 -51z m-901
-936 c-3 -8 -6 -5 -6 6 -1 11 2 17 5 13 3 -3 4 -12 1 -19z m-83 -124 c3 -8 2
-12 -4 -9 -6 3 -10 10 -10 16 0 14 7 11 14 -7z m-1439 -114 c3 -5 1 -10 -4
-10 -6 0 -11 5 -11 10 0 6 2 10 4 10 3 0 8 -4 11 -10z m-25 -10 c0 -5 -2 -10
-4 -10 -3 0 -8 5 -11 10 -3 6 -1 10 4 10 6 0 11 -4 11 -10z m1330 6 c0 -11
-19 -15 -25 -6 -3 5 1 10 9 10 9 0 16 -2 16 -4z m30 -6 c0 -5 -4 -10 -10 -10
-5 0 -10 5 -10 10 0 6 5 10 10 10 6 0 10 -4 10 -10z m-150 -52 c0 -6 -6 -5
-15 2 -8 7 -15 14 -15 16 0 2 7 1 15 -2 8 -4 15 -11 15 -16z m35 13 c3 -5 1
-12 -5 -16 -5 -3 -10 1 -10 9 0 18 6 21 15 7z m-805 -11 c0 -5 -5 -10 -11 -10
-5 0 -7 5 -4 10 3 6 8 10 11 10 2 0 4 -4 4 -10z m25 0 c3 -5 1 -10 -4 -10 -6
0 -11 5 -11 10 0 6 2 10 4 10 3 0 8 -4 11 -10z m781 -57 c-7 -7 -26 7 -26 19
0 6 6 6 15 -2 9 -7 13 -15 11 -17z m-856 7 c8 -5 11 -10 5 -10 -5 0 -17 5 -25
10 -8 5 -10 10 -5 10 6 0 17 -5 25 -10z m-490 -43 c-1 -21 -1 -21 -15 -3 -8
10 -12 23 -9 28 9 14 24 -2 24 -25z m1450 13 c0 -5 -7 -7 -15 -4 -8 4 -15 8
-15 10 0 2 7 4 15 4 8 0 15 -4 15 -10z m-1040 -14 c0 -3 -4 -8 -10 -11 -5 -3
-10 -1 -10 4 0 6 5 11 10 11 6 0 10 -2 10 -4z"/>
<path d="M520 1771 c0 -4 16 -26 35 -48 19 -23 35 -51 35 -63 0 -21 3 -22 45
-15 40 5 53 2 102 -25 30 -17 61 -29 68 -26 7 2 22 -2 33 -9 24 -18 122 -34
148 -25 23 8 48 -1 133 -52 34 -21 67 -38 71 -38 9 0 18 258 12 292 -4 15 -35
16 -343 16 -186 0 -339 -3 -339 -7z"/>
<path d="M13360 1770 c0 -5 5 -12 10 -15 15 -10 12 -35 -5 -35 -9 0 -15 9 -15
25 0 14 -5 25 -10 25 -19 0 -31 -54 -28 -120 l3 -65 35 3 c19 2 40 8 47 14 7
5 22 8 35 6 22 -4 22 -5 3 -12 -11 -4 -28 -12 -37 -17 -10 -5 -28 -9 -40 -9
-13 0 -28 -4 -34 -8 -15 -10 -11 -255 4 -260 6 -2 27 12 46 30 20 18 48 45 64
60 25 22 31 40 42 109 10 62 10 84 2 87 -18 6 -14 22 6 22 9 0 37 14 62 30 25
16 50 30 56 30 6 0 19 9 28 19 20 22 53 33 61 21 3 -5 31 -9 63 -9 31 0 70 -3
85 -7 19 -4 33 -2 45 9 9 8 43 29 76 46 l58 31 -331 -1 c-182 0 -331 -4 -331
-9z"/>
<path d="M592 1578 l3 -53 167 0 c93 0 168 3 168 8 0 4 -3 8 -7 8 -5 1 -20 3
-34 4 -54 7 -137 36 -169 60 -25 19 -46 25 -82 25 l-49 0 3 -52z"/>
<path d="M950 1531 c-10 -7 -11 -11 -3 -11 10 0 13 -38 13 -147 0 -184 -1
-430 -3 -463 -4 -93 5 -413 12 -402 6 10 10 10 20 -2 8 -10 9 -16 1 -21 -13
-8 -13 -25 0 -25 6 0 14 10 19 22 l8 22 12 -23 c8 -14 18 -20 28 -17 15 6 53
-19 53 -35 0 -11 -44 -7 -51 4 -4 6 -15 6 -25 2 -11 -5 -22 -7 -26 -7 -5 1 -8
-4 -8 -12 0 -8 6 -14 13 -13 40 1 53 -6 65 -33 18 -41 44 -41 36 0 -5 20 -3
30 6 30 7 0 10 7 6 15 -6 18 16 20 45 4 19 -10 19 -12 5 -28 -15 -16 -15 -19
-1 -31 9 -7 14 -19 11 -26 -3 -7 0 -15 7 -17 20 -7 2 -17 -20 -11 -13 4 -20
11 -16 20 4 10 0 12 -11 8 -20 -8 -21 -34 -1 -34 18 0 20 -17 3 -23 -10 -3
-10 -9 -3 -22 9 -15 26 -18 110 -18 161 -1 197 4 218 30 19 24 37 30 37 14 0
-5 -8 -17 -17 -27 -17 -17 -17 -17 4 -12 13 3 26 2 29 -3 3 -5 12 -9 20 -9 11
0 13 6 9 20 -4 11 0 29 9 42 11 16 16 18 16 7 0 -8 -5 -20 -11 -26 -6 -6 -8
-16 -5 -22 10 -15 36 -14 36 2 0 9 2 9 9 -1 6 -10 43 -13 147 -12 76 0 158 1
182 3 23 1 42 -1 42 -5 0 -5 10 -6 23 -4 12 1 22 9 22 16 0 7 5 15 11 17 7 2
11 -4 10 -14 -1 -17 10 -18 142 -18 78 0 142 2 142 5 0 3 16 4 36 2 24 -3 39
0 45 9 6 10 9 11 9 2 0 -8 14 -13 36 -13 29 0 35 3 30 16 -3 9 -6 18 -6 20 0
2 -4 4 -10 4 -5 0 -37 22 -71 49 -39 32 -73 51 -97 54 -70 10 -97 20 -155 59
l-59 38 -294 0 c-162 -1 -294 -5 -294 -10 0 -5 7 -15 15 -23 11 -12 12 -17 2
-24 -19 -15 -47 -23 -47 -14 0 5 9 11 20 14 20 5 20 6 -3 31 -23 24 -29 26
-120 25 -90 -1 -96 -2 -100 -22 l-4 -22 -8 22 c-4 13 -11 21 -15 18 -9 -6 -52
30 -44 38 4 4 9 873 5 924 -1 6 -15 15 -33 18 -17 4 -53 23 -80 42 -50 36
-112 51 -138 34z m50 -261 c0 -5 -4 -10 -10 -10 -5 0 -10 5 -10 10 0 6 5 10
10 10 6 0 10 -4 10 -10z m60 -330 c0 -5 -5 -10 -11 -10 -5 0 -7 5 -4 10 3 6 8
10 11 10 2 0 4 -4 4 -10z m24 -36 c3 -8 2 -12 -4 -9 -6 3 -10 10 -10 16 0 14
7 11 14 -7z m6 -176 c0 -5 -9 -3 -20 4 -11 7 -20 16 -20 20 0 5 9 3 20 -4 11
-7 20 -16 20 -20z m45 -36 c-3 -3 -11 0 -18 7 -9 10 -8 11 6 5 10 -3 15 -9 12
-12z m-131 -48 c3 -8 2 -12 -4 -9 -6 3 -10 10 -10 16 0 14 7 11 14 -7z m121
-150 c13 -5 14 -8 3 -15 -19 -13 -28 -11 -28 6 0 17 2 18 25 9z m30 -44 c3 -5
1 -10 -4 -10 -6 0 -11 5 -11 10 0 6 2 10 4 10 3 0 8 -4 11 -10z m499 -21 c-4
-6 -11 -6 -20 2 -21 17 -17 31 6 19 11 -6 18 -15 14 -21z m310 -5 c3 -8 2 -12
-4 -9 -6 3 -10 10 -10 16 0 14 7 11 14 -7z m-428 -19 c-9 -9 -16 -13 -16 -8 0
12 22 34 28 28 2 -2 -3 -11 -12 -20z m484 21 c0 -3 -4 -8 -10 -11 -5 -3 -10
-1 -10 4 0 6 5 11 10 11 6 0 10 -2 10 -4z m-750 -19 c0 -8 -7 -14 -15 -14 -11
0 -12 4 -4 14 6 7 13 13 15 13 2 0 4 -6 4 -13z m70 -12 c0 -8 -2 -15 -4 -15
-2 0 -6 7 -10 15 -3 8 -1 15 4 15 6 0 10 -7 10 -15z m331 -17 c-4 -32 -5 -32
-11 -8 -5 19 2 37 16 40 0 0 -2 -15 -5 -32z m-436 -8 c-3 -5 1 -10 10 -10 9 0
13 5 10 10 -3 6 -1 10 4 10 14 0 14 -17 1 -25 -15 -9 -60 -16 -60 -10 0 9 24
34 33 35 5 0 5 -4 2 -10z m538 -33 c-9 -15 -21 4 -15 25 5 21 6 21 12 2 4 -10
5 -22 3 -27z m82 23 c3 -5 1 -10 -4 -10 -6 0 -11 5 -11 10 0 6 2 10 4 10 3 0
8 -4 11 -10z m402 -37 c-21 -22 -32 -11 -17 17 9 16 15 19 23 11 8 -8 7 -16
-6 -28z m-567 -13 c0 -12 -28 -20 -45 -14 -24 10 -17 19 15 20 17 1 30 -2 30
-6z m-300 -10 c0 -5 -5 -10 -11 -10 -5 0 -7 5 -4 10 3 6 8 10 11 10 2 0 4 -4
4 -10z m349 -7 c11 -9 18 -21 14 -25 -5 -10 -43 19 -43 34 0 12 8 10 29 -9z
m221 3 c-18 -18 -70 -29 -70 -14 0 5 7 8 15 4 8 -3 15 -1 15 4 0 8 19 16 45
19 5 0 3 -6 -5 -13z m-661 -46 c0 -12 -3 -11 -14 3 -7 11 -11 26 -8 35 6 13 8
13 14 -4 4 -10 8 -26 8 -34z m741 40 c0 -5 -2 -10 -4 -10 -3 0 -8 5 -11 10 -3
6 -1 10 4 10 6 0 11 -4 11 -10z m176 -17 c-7 -7 -26 7 -26 19 0 6 6 6 15 -2 9
-7 13 -15 11 -17z m-1031 7 c3 -5 1 -10 -4 -10 -6 0 -11 5 -11 10 0 6 2 10 4
10 3 0 8 -4 11 -10z m65 0 c0 -5 -4 -10 -10 -10 -5 0 -10 5 -10 10 0 6 5 10
10 10 6 0 10 -4 10 -10z m1047 -12 c-3 -8 -6 -5 -6 6 -1 11 2 17 5 13 3 -3 4
-12 1 -19z m-457 2 c0 -5 -2 -10 -4 -10 -3 0 -8 5 -11 10 -3 6 -1 10 4 10 6 0
11 -4 11 -10z"/>
<path d="M6344 1465 c-161 -35 -304 -162 -365 -324 -50 -134 -65 -369 -33
-514 51 -227 218 -388 427 -413 l57 -7 0 56 c0 53 -2 56 -35 77 -70 43 -70 40
-73 480 -2 268 1 409 8 440 12 49 42 87 78 101 19 7 22 16 22 64 0 62 4 60
-86 40z"/>
<path d="M6505 1472 c-3 -3 -5 -27 -5 -53 0 -45 2 -48 34 -59 46 -15 120 -82
154 -138 15 -26 41 -87 57 -137 30 -89 31 -90 65 -93 57 -6 60 7 60 227 0 215
-6 244 -52 249 -20 2 -31 -4 -43 -22 -25 -37 -45 -39 -119 -11 -77 29 -143 45
-151 37z"/>
<path d="M3966 1442 c-23 -38 -15 -99 59 -412 42 -179 79 -338 82 -354 l6 -29
-100 6 -100 6 -12 -38 c-21 -72 -25 -70 116 -73 l127 -3 17 -85 c18 -92 16
-107 -26 -134 -19 -13 -25 -24 -23 -44 5 -47 32 -52 279 -52 205 0 229 2 249
18 30 25 21 66 -20 87 -46 24 -24 -48 -230 760 -39 154 -75 297 -81 318 l-10
37 -164 0 c-90 0 -166 -4 -169 -8z"/>
<path d="M4752 1438 c-7 -7 -12 -25 -12 -40 0 -22 7 -31 37 -45 32 -15 39 -24
45 -61 4 -23 5 -59 3 -80 -2 -20 -4 -220 -4 -444 l-1 -408 -40 -25 c-44 -28
-53 -62 -23 -86 24 -21 492 -20 517 0 30 25 16 63 -31 89 l-43 23 0 545 0 544
-218 0 c-156 0 -221 -3 -230 -12z"/>
<path d="M5270 1402 c0 -48 2 -52 34 -67 54 -26 66 -69 66 -233 0 -156 -7
-178 -63 -205 -36 -18 -37 -20 -37 -73 0 -40 4 -54 14 -54 8 0 27 -11 43 -24
27 -23 27 -25 34 -184 8 -179 22 -228 82 -290 66 -69 207 -80 307 -26 105 57
153 171 85 202 -21 10 -29 7 -54 -14 -16 -13 -32 -20 -35 -15 -3 5 -9 63 -13
129 -5 95 -11 130 -28 164 -26 51 -90 95 -167 113 -41 10 -48 14 -33 20 158
55 223 130 233 266 7 103 -17 169 -87 240 -71 71 -123 89 -273 96 l-108 6 0
-51z"/>
<path d="M7016 1431 c-24 -26 -13 -57 27 -78 18 -8 35 -21 39 -27 11 -16 10
-920 -1 -949 -5 -13 -26 -34 -45 -45 -38 -22 -45 -46 -23 -76 11 -16 38 -18
253 -23 226 -4 241 -4 263 14 32 26 22 67 -22 89 -17 9 -35 22 -39 28 -4 6 -8
226 -8 488 l0 478 39 19 c46 24 57 46 36 77 l-15 24 -244 0 c-227 0 -244 -1
-260 -19z"/>
<path d="M7618 1439 c-11 -6 -18 -22 -18 -39 0 -25 7 -33 38 -47 l37 -18 3
-212 2 -212 -77 -3 -77 -3 0 -45 0 -45 77 -3 77 -3 0 -224 0 -225 -40 -25
c-28 -18 -40 -32 -40 -49 0 -46 20 -51 223 -54 235 -5 292 1 312 32 21 31 10
53 -36 77 l-39 19 0 485 0 485 40 20 c33 17 40 26 40 50 0 19 -7 33 -19 40
-26 13 -480 13 -503 -1z"/>
<path d="M8296 1431 c-25 -28 -12 -57 35 -81 l39 -20 0 -476 c0 -289 -4 -482
-10 -494 -5 -10 -21 -21 -34 -24 -51 -13 -58 -78 -9 -97 13 -5 122 -9 241 -9
238 0 265 5 270 52 3 22 -3 31 -30 47 -18 11 -39 25 -45 31 -10 8 -13 117 -13
480 0 257 3 475 6 484 3 8 21 20 40 26 46 15 61 44 39 76 l-15 24 -249 0
c-232 0 -249 -1 -265 -19z"/>
<path d="M8932 1438 c-23 -23 -14 -62 23 -93 33 -27 40 -45 86 -205 119 -413
140 -483 183 -630 25 -85 54 -182 64 -215 l18 -60 114 0 113 0 35 125 c19 69
36 136 39 150 2 14 -35 158 -88 340 -129 441 -129 443 -129 462 0 10 15 25 33
34 50 26 62 58 31 88 -13 14 -51 16 -263 16 -179 0 -250 -3 -259 -12z"/>
<path d="M9598 1424 c-15 -32 -3 -53 42 -75 41 -20 60 -45 60 -78 0 -14 -23
-115 -52 -224 l-52 -198 25 -101 24 -102 49 185 c120 451 130 475 211 518 39
21 45 28 45 56 0 21 -6 35 -16 39 -9 3 -85 6 -170 6 l-154 0 -12 -26z"/>
<path d="M10038 1439 c-11 -6 -18 -22 -18 -39 0 -25 7 -33 38 -47 l37 -18 0
-490 0 -490 -37 -17 c-41 -19 -55 -47 -38 -77 15 -28 50 -32 265 -29 l190 3 3
608 2 607 -212 0 c-126 0 -220 -5 -230 -11z"/>
<path d="M10550 1401 l0 -48 65 -18 c85 -23 143 -77 177 -166 26 -70 43 -85
81 -75 l27 6 0 175 0 175 -175 0 -175 0 0 -49z"/>
<path d="M3873 1112 c-91 -341 -185 -666 -198 -691 -8 -16 -30 -41 -50 -57
-91 -73 -94 -78 -71 -110 13 -17 28 -19 165 -19 126 0 153 3 167 16 23 24 10
54 -39 86 -69 47 -70 42 44 449 l69 252 -20 88 c-12 49 -24 92 -28 96 -4 4
-21 -46 -39 -110z"/>
<path d="M10666 1078 c-8 -13 -17 -38 -21 -56 -7 -32 -52 -87 -88 -107 -16 -9
-17 -18 -11 -62 4 -35 11 -53 20 -53 18 0 70 -72 85 -118 22 -71 63 -93 93
-50 13 19 16 57 16 220 0 108 -4 208 -10 222 -13 35 -63 36 -84 4z"/>
<path d="M10838 603 c-9 -10 -30 -48 -47 -85 -40 -86 -103 -143 -183 -166
l-59 -17 3 -50 3 -50 180 0 180 0 3 179 c2 123 -1 183 -9 192 -16 19 -53 17
-71 -3z"/>
<path d="M6787 582 c-9 -10 -22 -34 -28 -53 -27 -78 -132 -179 -201 -194 -49
-11 -58 -23 -58 -76 0 -57 4 -58 91 -33 104 30 203 113 252 211 38 74 41 105
17 136 -25 31 -50 34 -73 9z"/>
<path d="M2220 450 c36 -16 73 -30 82 -30 9 0 20 -4 23 -10 3 -5 13 -10 21
-10 15 0 105 -67 112 -82 2 -5 12 -8 23 -8 10 0 19 -4 19 -10 0 -11 33 -13 68
-4 19 6 22 11 18 33 -6 24 -5 25 8 8 8 -11 12 -25 9 -33 -4 -10 0 -12 13 -7
12 4 15 3 10 -6 -5 -7 -15 -10 -23 -7 -10 4 -13 0 -11 -12 2 -10 11 -16 22
-14 11 2 22 -1 26 -7 4 -7 55 -13 129 -15 99 -4 123 -2 128 10 3 8 9 14 14 14
4 0 6 -7 3 -15 -5 -11 -2 -13 10 -9 9 3 13 10 10 16 -3 5 4 4 16 -4 18 -11 23
-11 27 0 4 10 8 10 19 1 8 -6 23 -9 33 -6 11 3 22 0 24 -6 2 -6 9 -7 15 -3 8
5 12 42 12 112 0 69 -4 103 -10 99 -6 -4 -7 -11 -4 -17 4 -7 2 -8 -4 -4 -12 7
-5 36 9 36 5 0 9 5 9 10 0 7 -112 10 -321 10 -281 -1 -319 -3 -303 -15 10 -8
26 -15 34 -15 12 0 11 -3 -3 -11 -13 -8 -21 -6 -33 5 -19 19 -26 20 -42 4 -7
-7 -12 -8 -12 -2 0 6 5 15 12 22 9 9 8 12 -5 12 -9 0 -17 -8 -17 -17 -1 -17
-1 -17 -14 0 -11 14 -30 17 -117 17 l-104 -1 65 -29z m460 16 c0 -3 -4 -8 -10
-11 -5 -3 -10 -1 -10 4 0 6 5 11 10 11 6 0 10 -2 10 -4z m40 -40 c0 -3 -4 -8
-10 -11 -5 -3 -10 -1 -10 4 0 6 5 11 10 11 6 0 10 -2 10 -4z m68 -24 c2 -7 -2
-10 -12 -6 -9 3 -16 11 -16 16 0 13 23 5 28 -10z m36 -16 c-6 -15 -34 -31 -34
-19 0 5 30 32 37 33 1 0 0 -6 -3 -14z m-77 -38 c-3 -8 -6 -5 -6 6 -1 11 2 17
5 13 3 -3 4 -12 1 -19z m273 2 c0 -5 -2 -10 -4 -10 -3 0 -8 5 -11 10 -3 6 -1
10 4 10 6 0 11 -4 11 -10z m-180 -25 c-7 -8 -18 -15 -24 -15 -6 0 -2 7 8 15
25 19 32 19 16 0z m-188 -37 c-8 -8 -9 -4 -5 13 4 13 8 18 11 10 2 -7 -1 -18
-6 -23z"/>
<path d="M1045 280 c-3 -5 -1 -10 4 -10 6 0 11 5 11 10 0 6 -2 10 -4 10 -3 0
-8 -4 -11 -10z"/>
<path d="M1025 250 c3 -5 8 -10 11 -10 2 0 4 5 4 10 0 6 -5 10 -11 10 -5 0 -7
-4 -4 -10z"/>
</g>
</svg>
